G04 #@! TF.FileFunction,Copper,L1,Top,Signal*
%FSLAX46Y46*%
G04 Gerber Fmt 4.6, Leading zero omitted, Abs format (unit mm)*
G04 Created by KiCad (PCBNEW 4.0.6) date 08/06/17 17:06:55*
%MOMM*%
%LPD*%
G01*
G04 APERTURE LIST*
%ADD10C,0.100000*%
%ADD11C,1.000000*%
%ADD12C,3.100000*%
%ADD13R,1.727200X1.727200*%
%ADD14O,1.727200X1.727200*%
%ADD15R,2.032000X2.032000*%
%ADD16O,2.032000X2.032000*%
%ADD17C,0.685800*%
%ADD18C,0.152400*%
%ADD19C,0.304800*%
%ADD20C,0.203200*%
%ADD21C,0.254000*%
G04 APERTURE END LIST*
D10*
D11*
X140440000Y-100470000D03*
X142940000Y-99970000D03*
X145440000Y-99470000D03*
X140440000Y-98970000D03*
X142940000Y-98470000D03*
X145440000Y-97970000D03*
X140440000Y-97470000D03*
X142940000Y-96970000D03*
X145440000Y-96470000D03*
X140440000Y-95970000D03*
X142940000Y-95470000D03*
X145440000Y-94970000D03*
X140440000Y-94470000D03*
X142940000Y-93970000D03*
X145440000Y-93470000D03*
X140440000Y-92970000D03*
X142940000Y-92470000D03*
X145440000Y-91970000D03*
X140440000Y-91470000D03*
X142940000Y-90970000D03*
X145440000Y-90470000D03*
X140440000Y-89970000D03*
X142940000Y-89470000D03*
X145440000Y-88970000D03*
X126440000Y-88970000D03*
X123940000Y-89470000D03*
X121440000Y-89970000D03*
X126440000Y-90470000D03*
X123940000Y-90970000D03*
X121440000Y-91470000D03*
X126440000Y-91970000D03*
X123940000Y-92470000D03*
X121440000Y-92970000D03*
X126440000Y-93470000D03*
X123940000Y-93970000D03*
X121440000Y-94470000D03*
X126440000Y-94970000D03*
X123940000Y-95470000D03*
X121440000Y-95970000D03*
X126440000Y-96470000D03*
X123940000Y-96970000D03*
X121440000Y-97470000D03*
X126440000Y-97970000D03*
X123940000Y-98470000D03*
X121440000Y-98970000D03*
X126440000Y-99470000D03*
X123940000Y-99970000D03*
X121440000Y-100470000D03*
D12*
X124440000Y-102970000D03*
X142940000Y-86470000D03*
D13*
X143361000Y-109528000D03*
D14*
X143361000Y-106988000D03*
X145901000Y-109528000D03*
X145901000Y-106988000D03*
X148441000Y-109528000D03*
X148441000Y-106988000D03*
X150981000Y-109528000D03*
X150981000Y-106988000D03*
X153521000Y-109528000D03*
X153521000Y-106988000D03*
X156061000Y-109528000D03*
X156061000Y-106988000D03*
X158601000Y-109528000D03*
X158601000Y-106988000D03*
X161141000Y-109528000D03*
X161141000Y-106988000D03*
X163681000Y-109528000D03*
X163681000Y-106988000D03*
X166221000Y-109528000D03*
X166221000Y-106988000D03*
D13*
X171809000Y-101908000D03*
D14*
X169269000Y-101908000D03*
X171809000Y-99368000D03*
X169269000Y-99368000D03*
X171809000Y-96828000D03*
X169269000Y-96828000D03*
X171809000Y-94288000D03*
X169269000Y-94288000D03*
X171809000Y-91748000D03*
X169269000Y-91748000D03*
X171809000Y-89208000D03*
X169269000Y-89208000D03*
X171809000Y-86668000D03*
X169269000Y-86668000D03*
D13*
X153521000Y-84826500D03*
D14*
X156061000Y-84826500D03*
X158601000Y-84826500D03*
X161141000Y-84826500D03*
X163681000Y-84826500D03*
X166221000Y-84826500D03*
D13*
X143361000Y-81588000D03*
D14*
X143361000Y-79048000D03*
X145901000Y-81588000D03*
X145901000Y-79048000D03*
X148441000Y-81588000D03*
X148441000Y-79048000D03*
X150981000Y-81588000D03*
X150981000Y-79048000D03*
X153521000Y-81588000D03*
X153521000Y-79048000D03*
X156061000Y-81588000D03*
X156061000Y-79048000D03*
X158601000Y-81588000D03*
X158601000Y-79048000D03*
X161141000Y-81588000D03*
X161141000Y-79048000D03*
X163681000Y-81588000D03*
X163681000Y-79048000D03*
X166221000Y-81588000D03*
X166221000Y-79048000D03*
D15*
X135995000Y-108385000D03*
D16*
X133455000Y-108385000D03*
D17*
X141600000Y-94500000D03*
X139300000Y-94500000D03*
X150100000Y-93900000D03*
X128800000Y-98600000D03*
X131300000Y-98600000D03*
X150100000Y-98000000D03*
D18*
X171809000Y-101908000D02*
X171809000Y-101509000D01*
X171809000Y-101509000D02*
X170500000Y-100200000D01*
X170500000Y-100200000D02*
X170500000Y-98900000D01*
X170500000Y-98900000D02*
X169700000Y-98100000D01*
X169700000Y-98100000D02*
X167200000Y-98100000D01*
X167200000Y-98100000D02*
X166300000Y-97200000D01*
X166300000Y-97200000D02*
X144400000Y-97200000D01*
X144400000Y-97200000D02*
X143900000Y-97700000D01*
X143900000Y-97700000D02*
X140670000Y-97700000D01*
X140670000Y-97700000D02*
X140440000Y-97470000D01*
X167694201Y-95735799D02*
X166960000Y-96470000D01*
X166960000Y-96470000D02*
X145440000Y-96470000D01*
X171809000Y-91748000D02*
X170361201Y-93195799D01*
X170361201Y-93195799D02*
X170361201Y-95100799D01*
X170361201Y-95100799D02*
X169726201Y-95735799D01*
X169726201Y-95735799D02*
X167694201Y-95735799D01*
X142940000Y-96970000D02*
X143647106Y-96970000D01*
X170716799Y-90300201D02*
X170945401Y-90071599D01*
X143647106Y-96970000D02*
X144875707Y-95741399D01*
X166199143Y-95741399D02*
X169100341Y-92840201D01*
X144875707Y-95741399D02*
X166199143Y-95741399D01*
X169100341Y-92840201D02*
X170081799Y-92840201D01*
X170081799Y-92840201D02*
X170716799Y-92205201D01*
X170716799Y-92205201D02*
X170716799Y-90300201D01*
X170945401Y-90071599D02*
X171809000Y-89208000D01*
D19*
X140440000Y-94470000D02*
X141570000Y-94470000D01*
X141570000Y-94470000D02*
X141600000Y-94500000D01*
X139300000Y-94500000D02*
X140410000Y-94500000D01*
X140410000Y-94500000D02*
X140440000Y-94470000D01*
X141570000Y-94470000D02*
X141600000Y-94500000D01*
X139330000Y-94470000D02*
X139300000Y-94500000D01*
X141600000Y-94500000D02*
X141570000Y-94470000D01*
X141570000Y-94470000D02*
X141600000Y-94500000D01*
X141570000Y-94470000D02*
X141600000Y-94500000D01*
X139330000Y-94470000D02*
X139300000Y-94500000D01*
D18*
X128826299Y-93086321D02*
X128759121Y-93086320D01*
X124668601Y-96241399D02*
X124439999Y-96470001D01*
X127499998Y-92159943D02*
X127439473Y-92189091D01*
X129090824Y-92821795D02*
X129075875Y-92887290D01*
X129861500Y-89996607D02*
X129890647Y-90057133D01*
X156061000Y-81588000D02*
X154968799Y-82680201D01*
X130730784Y-90017362D02*
X130670258Y-89988215D01*
X129084006Y-90958184D02*
X129853369Y-91727547D01*
X128891794Y-93071371D02*
X128826299Y-93086321D01*
X129890647Y-89737914D02*
X129861500Y-89798440D01*
X130863457Y-90032311D02*
X130796278Y-90032311D01*
X154968799Y-82680201D02*
X138308129Y-82680201D01*
X131042000Y-89946330D02*
X130989477Y-89988215D01*
X129395222Y-90462887D02*
X129329728Y-90447939D01*
X127811214Y-92230976D02*
X127758692Y-92189091D01*
X130356797Y-89685392D02*
X130304275Y-89643507D01*
X128580577Y-93000339D02*
X127811214Y-92230976D01*
X129046726Y-92628598D02*
X129075875Y-92689122D01*
X130330157Y-91345168D02*
X130277633Y-91303283D01*
X128242296Y-93603145D02*
X128242296Y-93670323D01*
X138308129Y-82680201D02*
X131042000Y-89946330D01*
X126090271Y-94241399D02*
X124668601Y-95663069D01*
X124668601Y-95663069D02*
X124668601Y-96241399D01*
X124439999Y-96470001D02*
X123940000Y-96970000D01*
X128193592Y-91754189D02*
X128235478Y-91806712D01*
X127336674Y-93693673D02*
X127276148Y-93722821D01*
X129004841Y-93000339D02*
X128952319Y-93042225D01*
X130045581Y-89614359D02*
X129985056Y-89643507D01*
X130989477Y-89988215D02*
X130928951Y-90017362D01*
X130701897Y-90879019D02*
X130743782Y-90931542D01*
X129542154Y-92222844D02*
X129481629Y-92193696D01*
X129932533Y-90109656D02*
X130701897Y-90879019D01*
X130796278Y-90032311D02*
X130730784Y-90017362D01*
X130928951Y-90017362D02*
X130863457Y-90032311D01*
X130243749Y-89614359D02*
X130178255Y-89599411D01*
X128164445Y-91693663D02*
X128193592Y-91754189D01*
X130670258Y-89988215D02*
X130617735Y-89946330D01*
X130772931Y-90992066D02*
X130787880Y-91057561D01*
X128242296Y-93670323D02*
X128227347Y-93735818D01*
X128227347Y-93537650D02*
X128242296Y-93603145D01*
X130649375Y-91345169D02*
X130588850Y-91374315D01*
X130523355Y-91389265D02*
X130456177Y-91389264D01*
X128103791Y-93890753D02*
X128043266Y-93919899D01*
X130743783Y-91250760D02*
X130701897Y-91303283D01*
X129985056Y-89643507D02*
X129932533Y-89685392D01*
X127386950Y-92230976D02*
X127345064Y-92283498D01*
X130617735Y-89946330D02*
X130356797Y-89685392D01*
X129895255Y-92099288D02*
X129853369Y-92151811D01*
X130787880Y-91057561D02*
X130787880Y-91124739D01*
X130390682Y-91374316D02*
X130330157Y-91345168D01*
X129090824Y-92754617D02*
X129090824Y-92821795D01*
X130178255Y-89599411D02*
X130111076Y-89599411D01*
X130304275Y-89643507D02*
X130243749Y-89614359D01*
X129924403Y-91840594D02*
X129939352Y-91906089D01*
X130111076Y-89599411D02*
X130045581Y-89614359D01*
X128546694Y-91311415D02*
X128481200Y-91296467D01*
X128998024Y-90779641D02*
X129012973Y-90845135D01*
X127315917Y-92542191D02*
X127345064Y-92602717D01*
X130772931Y-91190234D02*
X130743783Y-91250760D01*
X129932533Y-89685392D02*
X129890647Y-89737914D01*
X127910593Y-93934848D02*
X127845098Y-93919900D01*
X129861500Y-89798440D02*
X129846551Y-89863934D01*
X129890647Y-90057133D02*
X129932533Y-90109656D01*
X129429105Y-92151811D02*
X128659742Y-91382448D01*
X129846551Y-89863934D02*
X129846551Y-89931113D01*
X129939352Y-91906089D02*
X129939352Y-91973267D01*
X128288001Y-91340563D02*
X128235478Y-91382448D01*
X129846551Y-89931113D02*
X129861500Y-89996607D01*
X127732049Y-93848867D02*
X127647889Y-93764707D01*
X128193592Y-91434970D02*
X128164445Y-91495496D01*
X130701897Y-91303283D02*
X130649375Y-91345169D01*
X127534842Y-93693673D02*
X127469347Y-93678724D01*
X130743782Y-90931542D02*
X130772931Y-90992066D01*
X130787880Y-91124739D02*
X130772931Y-91190234D01*
X129012973Y-90646968D02*
X128998024Y-90712462D01*
X130588850Y-91374315D02*
X130523355Y-91389265D01*
X127784573Y-93890752D02*
X127732049Y-93848867D01*
X129853369Y-92151811D02*
X129800847Y-92193697D01*
X129075875Y-92887290D02*
X129046727Y-92947816D01*
X129329728Y-90447939D02*
X129262549Y-90447939D01*
X130456177Y-91389264D02*
X130390682Y-91374316D01*
X130277633Y-91303283D02*
X129508270Y-90533920D01*
X128693626Y-93071372D02*
X128633101Y-93042224D01*
X129075875Y-92689122D02*
X129090824Y-92754617D01*
X128227347Y-93735818D02*
X128198199Y-93796344D01*
X129508270Y-90533920D02*
X129455748Y-90492035D01*
X129455748Y-90492035D02*
X129395222Y-90462887D01*
X129262549Y-90447939D02*
X129197054Y-90462887D01*
X129042120Y-90905661D02*
X129084006Y-90958184D01*
X129197054Y-90462887D02*
X129136529Y-90492035D01*
X127300968Y-92409518D02*
X127300968Y-92476697D01*
X129136529Y-90492035D02*
X129084006Y-90533920D01*
X129674827Y-92237793D02*
X129607649Y-92237792D01*
X129084006Y-90533920D02*
X129042120Y-90586442D01*
X129042120Y-90586442D02*
X129012973Y-90646968D01*
X127977771Y-93934849D02*
X127910593Y-93934848D01*
X128998024Y-90712462D02*
X128998024Y-90779641D01*
X129012973Y-90845135D02*
X129042120Y-90905661D01*
X129853369Y-91727547D02*
X129895254Y-91780070D01*
X129895254Y-91780070D02*
X129924403Y-91840594D01*
X129939352Y-91973267D02*
X129924403Y-92038762D01*
X129924403Y-92038762D02*
X129895255Y-92099288D01*
X129800847Y-92193697D02*
X129740322Y-92222843D01*
X127758692Y-92189091D02*
X127698166Y-92159943D01*
X129740322Y-92222843D02*
X129674827Y-92237793D01*
X128164445Y-91495496D02*
X128149496Y-91560990D01*
X129607649Y-92237792D02*
X129542154Y-92222844D01*
X128156313Y-93424603D02*
X128198198Y-93477126D01*
X129481629Y-92193696D02*
X129429105Y-92151811D01*
X128659742Y-91382448D02*
X128607220Y-91340563D01*
X128607220Y-91340563D02*
X128546694Y-91311415D01*
X128481200Y-91296467D02*
X128414021Y-91296467D01*
X128414021Y-91296467D02*
X128348526Y-91311415D01*
X128043266Y-93919899D02*
X127977771Y-93934849D01*
X128348526Y-91311415D02*
X128288001Y-91340563D01*
X128235478Y-91382448D02*
X128193592Y-91434970D01*
X127300968Y-92476697D02*
X127315917Y-92542191D01*
X128149496Y-91560990D02*
X128149496Y-91628169D01*
X128149496Y-91628169D02*
X128164445Y-91693663D01*
X127345064Y-92283498D02*
X127315917Y-92344024D01*
X128235478Y-91806712D02*
X129004841Y-92576075D01*
X129004841Y-92576075D02*
X129046726Y-92628598D01*
X129046727Y-92947816D02*
X129004841Y-93000339D01*
X127386950Y-92655240D02*
X128156313Y-93424603D01*
X128952319Y-93042225D02*
X128891794Y-93071371D01*
X127632672Y-92144995D02*
X127565493Y-92144995D01*
X128759121Y-93086320D02*
X128693626Y-93071372D01*
X128633101Y-93042224D02*
X128580577Y-93000339D01*
X127698166Y-92159943D02*
X127632672Y-92144995D01*
X127565493Y-92144995D02*
X127499998Y-92159943D01*
X127439473Y-92189091D02*
X127386950Y-92230976D01*
X127402169Y-93678724D02*
X127336674Y-93693673D01*
X127315917Y-92344024D02*
X127300968Y-92409518D01*
X127345064Y-92602717D02*
X127386950Y-92655240D01*
X127469347Y-93678724D02*
X127402169Y-93678724D01*
X128198198Y-93477126D02*
X128227347Y-93537650D01*
X128198199Y-93796344D02*
X128156313Y-93848867D01*
X128156313Y-93848867D02*
X128103791Y-93890753D01*
X127647889Y-93764707D02*
X127595368Y-93722821D01*
X127845098Y-93919900D02*
X127784573Y-93890752D01*
X127595368Y-93722821D02*
X127534842Y-93693673D01*
X127276148Y-93722821D02*
X127223625Y-93764707D01*
X127223625Y-93764707D02*
X126746931Y-94241399D01*
X126746931Y-94241399D02*
X126090271Y-94241399D01*
X125200000Y-96631670D02*
X125200000Y-96788330D01*
X122147106Y-97470000D02*
X121440000Y-97470000D01*
X124289729Y-97698601D02*
X122375707Y-97698601D01*
X126133069Y-95698601D02*
X125200000Y-96631670D01*
X131879362Y-90608966D02*
X131242956Y-91245374D01*
X131950395Y-90495917D02*
X131921247Y-90556443D01*
X131950395Y-90297750D02*
X131965343Y-90363244D01*
X131921247Y-90237224D02*
X131950395Y-90297750D01*
X131812177Y-90117517D02*
X131879362Y-90184702D01*
X131770291Y-90064994D02*
X131812177Y-90117517D01*
X131741144Y-90004468D02*
X131770291Y-90064994D01*
X131741144Y-89806301D02*
X131726195Y-89871795D01*
X131812177Y-89693253D02*
X131770291Y-89745775D01*
X131864700Y-89651368D02*
X131812177Y-89693253D01*
X126789729Y-95698601D02*
X126133069Y-95698601D01*
X131925226Y-89622220D02*
X131864700Y-89651368D01*
X131990720Y-89607272D02*
X131925226Y-89622220D01*
X132057899Y-89607272D02*
X131990720Y-89607272D01*
X132123393Y-89622220D02*
X132057899Y-89607272D01*
X132183919Y-89651368D02*
X132123393Y-89622220D01*
X132236441Y-89693253D02*
X132183919Y-89651368D01*
X132584707Y-90041520D02*
X132236441Y-89693253D01*
X132601777Y-90055135D02*
X132584707Y-90041520D01*
X132621450Y-90064608D02*
X132601777Y-90055135D01*
X132664573Y-90069466D02*
X132642737Y-90069467D01*
X132685860Y-90064607D02*
X132664573Y-90069466D01*
X132705531Y-90055135D02*
X132685860Y-90064607D01*
X133036916Y-89697122D02*
X133032059Y-89718408D01*
X131965343Y-90430423D02*
X131950395Y-90495917D01*
X133032058Y-89654000D02*
X133036917Y-89675286D01*
X133022585Y-89634326D02*
X133032058Y-89654000D01*
X132660704Y-89268990D02*
X133008970Y-89617256D01*
X132589671Y-89155941D02*
X132618818Y-89216467D01*
X132660704Y-88844726D02*
X132618818Y-88897248D01*
X132713227Y-88802841D02*
X132660704Y-88844726D01*
X132839247Y-88758745D02*
X132773753Y-88773693D01*
X132589671Y-88957774D02*
X132574722Y-89023268D01*
X131242956Y-91245374D02*
X126789729Y-95698601D01*
X132906426Y-88758745D02*
X132839247Y-88758745D01*
X133513100Y-89220939D02*
X133491264Y-89220940D01*
X133534387Y-89216080D02*
X133513100Y-89220939D01*
X133554058Y-89206608D02*
X133534387Y-89216080D01*
X132618818Y-89216467D02*
X132660704Y-89268990D01*
X133880586Y-88869881D02*
X133871112Y-88889553D01*
X131921247Y-90556443D02*
X131879362Y-90608966D01*
X133880585Y-88805473D02*
X133885444Y-88826759D01*
X133857497Y-88768729D02*
X133871112Y-88785799D01*
X133509231Y-88420463D02*
X133857497Y-88768729D01*
X133438198Y-88307414D02*
X133467345Y-88367940D01*
X133423249Y-88241920D02*
X133438198Y-88307414D01*
X133433234Y-89192993D02*
X133084968Y-88844726D01*
X133423249Y-88174741D02*
X133423249Y-88241920D01*
X133438198Y-88109247D02*
X133423249Y-88174741D01*
X133450304Y-89206608D02*
X133433234Y-89192993D01*
X133032059Y-89718408D02*
X133022585Y-89738080D01*
X122375707Y-97698601D02*
X122147106Y-97470000D01*
X133561754Y-87954314D02*
X133509231Y-87996199D01*
X133687774Y-87910218D02*
X133622280Y-87925166D01*
X133571130Y-89192993D02*
X133554058Y-89206608D01*
X134339791Y-88372413D02*
X134318504Y-88367554D01*
X133491264Y-89220940D02*
X133469977Y-89216081D01*
X133084968Y-88844726D02*
X133032446Y-88802841D01*
X134361627Y-88372412D02*
X134339791Y-88372413D01*
X134318504Y-88367554D02*
X134298831Y-88358081D01*
X134402585Y-88358081D02*
X134382914Y-88367553D01*
X133032446Y-88802841D02*
X132971920Y-88773693D01*
X134419657Y-88344466D02*
X134402585Y-88358081D01*
X134733971Y-87978232D02*
X134733970Y-88000068D01*
X134706024Y-87920202D02*
X134719639Y-87937272D01*
X134271775Y-87393393D02*
X134286724Y-87458887D01*
X134286724Y-87260720D02*
X134271775Y-87326214D01*
X134470806Y-87076639D02*
X134410280Y-87105787D01*
X132722603Y-90041520D02*
X132705531Y-90055135D01*
X134668973Y-87076639D02*
X134603479Y-87061691D01*
X133467345Y-88367940D02*
X133509231Y-88420463D01*
X132618818Y-88897248D02*
X132589671Y-88957774D01*
X134729499Y-87105787D02*
X134668973Y-87076639D01*
X134729113Y-88021354D02*
X134719639Y-88041026D01*
X133467345Y-88048721D02*
X133438198Y-88109247D01*
X131879362Y-90184702D02*
X131921247Y-90237224D01*
X134603479Y-87061691D02*
X134536300Y-87061691D01*
X134782021Y-87147672D02*
X134729499Y-87105787D01*
X135094929Y-87300839D02*
X135027750Y-87300839D01*
X133622280Y-87925166D02*
X133561754Y-87954314D01*
X134281761Y-88344466D02*
X133933495Y-87996199D01*
X135273472Y-87214858D02*
X135220949Y-87256743D01*
X133933495Y-87996199D02*
X133880973Y-87954314D01*
X135315355Y-87162334D02*
X135273471Y-87214858D01*
X134536300Y-87061691D02*
X134470806Y-87076639D01*
X135273470Y-86790593D02*
X135315355Y-86843115D01*
X133885443Y-88848595D02*
X133880586Y-88869881D01*
X134719639Y-87937272D02*
X134729112Y-87956946D01*
X135344503Y-86903641D02*
X135359451Y-86969135D01*
X132574722Y-89023268D02*
X132574722Y-89090447D01*
X133509231Y-87996199D02*
X133467345Y-88048721D01*
X135206285Y-86723408D02*
X135273470Y-86790593D01*
X135315355Y-86843115D02*
X135344503Y-86903641D01*
X133036917Y-89675286D02*
X133036916Y-89697122D01*
X133871112Y-88889553D02*
X133857497Y-88906625D01*
X135164399Y-86670885D02*
X135206285Y-86723408D01*
X135135252Y-86610359D02*
X135164399Y-86670885D01*
X135164399Y-86351666D02*
X135135252Y-86412192D01*
X135359451Y-87036314D02*
X135344503Y-87101808D01*
X133754953Y-87910218D02*
X133687774Y-87910218D01*
X135135252Y-86412192D02*
X135120303Y-86477686D01*
X133885444Y-88826759D02*
X133885443Y-88848595D01*
X135027750Y-87300839D02*
X134962256Y-87285890D01*
X135206285Y-86299144D02*
X135164399Y-86351666D01*
X134315871Y-87200194D02*
X134286724Y-87260720D01*
X135258808Y-86257259D02*
X135206285Y-86299144D01*
X135344503Y-87101808D02*
X135315355Y-87162334D01*
X134357757Y-87571936D02*
X134706024Y-87920202D01*
X134962256Y-87285890D02*
X134901730Y-87256743D01*
X135319334Y-86228111D02*
X135258808Y-86257259D01*
X133469977Y-89216081D02*
X133450304Y-89206608D01*
X135517501Y-86228111D02*
X135452007Y-86213163D01*
X133008970Y-89617256D02*
X133022585Y-89634326D01*
X131726195Y-89871795D02*
X131726195Y-89938974D01*
X135630549Y-86299144D02*
X135578027Y-86257259D01*
X134733970Y-88000068D02*
X134729113Y-88021354D01*
X132971920Y-88773693D02*
X132906426Y-88758745D01*
X134706024Y-88058098D02*
X134419657Y-88344466D01*
X131726195Y-89938974D02*
X131741144Y-90004468D01*
X135697735Y-86366330D02*
X135630549Y-86299144D01*
X134719639Y-88041026D02*
X134706024Y-88058098D01*
X133871112Y-88785799D02*
X133880585Y-88805473D01*
X135810784Y-86437362D02*
X135750258Y-86408215D01*
X135452007Y-86213163D02*
X135384828Y-86213163D01*
X135578027Y-86257259D02*
X135517501Y-86228111D01*
X135160423Y-87285890D02*
X135094929Y-87300839D01*
X131965343Y-90363244D02*
X131965343Y-90430423D01*
X131770291Y-89745775D02*
X131741144Y-89806301D01*
X132574722Y-89090447D02*
X132589671Y-89155941D01*
X134849207Y-87214858D02*
X134782021Y-87147672D01*
X135876278Y-86452311D02*
X135810784Y-86437362D01*
X132642737Y-90069467D02*
X132621450Y-90064608D01*
X135273471Y-87214858D02*
X135273472Y-87214858D01*
X133022585Y-89738080D02*
X133008970Y-89755152D01*
X135120303Y-86544865D02*
X135135252Y-86610359D01*
X134298831Y-88358081D02*
X134281761Y-88344466D01*
X135359451Y-86969135D02*
X135359451Y-87036314D01*
X134315871Y-87519413D02*
X134357757Y-87571936D01*
X135943457Y-86452311D02*
X135876278Y-86452311D01*
X134271775Y-87326214D02*
X134271775Y-87393393D01*
X136008951Y-86437362D02*
X135943457Y-86452311D01*
X136122000Y-86366330D02*
X136069477Y-86408215D01*
X134729112Y-87956946D02*
X134733971Y-87978232D01*
X135750258Y-86408215D02*
X135697735Y-86366330D01*
X134357757Y-87147672D02*
X134315871Y-87200194D01*
X136069477Y-86408215D02*
X136008951Y-86437362D01*
X132773753Y-88773693D02*
X132713227Y-88802841D01*
X134286724Y-87458887D02*
X134315871Y-87519413D01*
X135220949Y-87256743D02*
X135160423Y-87285890D01*
X134410280Y-87105787D02*
X134357757Y-87147672D01*
X134901730Y-87256743D02*
X134849207Y-87214858D01*
X135120303Y-86477686D02*
X135120303Y-86544865D01*
X133880973Y-87954314D02*
X133820447Y-87925166D01*
X133857497Y-88906625D02*
X133571130Y-89192993D01*
X139503319Y-82985011D02*
X136122000Y-86366330D01*
X157203989Y-82985011D02*
X139503319Y-82985011D01*
X133820447Y-87925166D02*
X133754953Y-87910218D01*
X135384828Y-86213163D02*
X135319334Y-86228111D01*
X158601000Y-81588000D02*
X157203989Y-82985011D01*
X133008970Y-89755152D02*
X132722603Y-90041520D01*
X134382914Y-88367553D02*
X134361627Y-88372412D01*
X125200000Y-96788330D02*
X124289729Y-97698601D01*
X161141000Y-81588000D02*
X159439179Y-83289821D01*
X159439179Y-83289821D02*
X140008179Y-83289821D01*
X138970557Y-84101633D02*
X138946247Y-84096084D01*
X136017475Y-86969510D02*
X136006656Y-86991976D01*
X138657347Y-84640653D02*
X139133026Y-85116332D01*
X135738916Y-88510442D02*
X135780802Y-88562963D01*
X140008179Y-83289821D02*
X139170000Y-84128000D01*
X135566798Y-87505392D02*
X135542488Y-87499843D01*
X126939999Y-97470001D02*
X126440000Y-97970000D01*
X139170000Y-84128000D02*
X139150504Y-84143547D01*
X139150504Y-84143547D02*
X139128038Y-84154366D01*
X135184495Y-87956022D02*
X135738916Y-88510442D01*
X138016358Y-84970629D02*
X137996862Y-84986176D01*
X137714530Y-85390944D02*
X137730077Y-85410440D01*
X136243538Y-87318010D02*
X136269556Y-87350636D01*
X135930183Y-87795684D02*
X135889499Y-87786398D01*
X139054481Y-84154366D02*
X139032015Y-84143547D01*
X138874534Y-84112452D02*
X138855039Y-84127999D01*
X136269556Y-87350636D02*
X136287664Y-87388233D01*
X136866002Y-86120983D02*
X136855183Y-86143449D01*
X137286318Y-85819157D02*
X137263852Y-85808338D01*
X138556339Y-84461055D02*
X138556339Y-84485990D01*
X139128038Y-84154366D02*
X139103727Y-84159914D01*
X139133026Y-85540596D02*
X139080504Y-85582482D01*
X135686394Y-88976592D02*
X135625869Y-89005738D01*
X138370481Y-86210580D02*
X138355532Y-86276075D01*
X135971913Y-87795684D02*
X135930183Y-87795684D01*
X139103727Y-84159914D02*
X139078792Y-84159914D01*
X135824899Y-88688984D02*
X135824899Y-88756162D01*
X139133026Y-85116332D02*
X139174912Y-85168853D01*
X136006656Y-86991976D02*
X136001107Y-87016287D01*
X138921311Y-84096084D02*
X138897001Y-84101633D01*
X138284498Y-85964860D02*
X138326384Y-86017381D01*
X139032015Y-84143547D02*
X138993023Y-84112452D01*
X139078792Y-84159914D02*
X139054481Y-84154366D01*
X138355532Y-86077907D02*
X138370481Y-86143402D01*
X138993023Y-84112452D02*
X138970557Y-84101633D01*
X136792222Y-86985066D02*
X136744536Y-86962102D01*
X139204060Y-85427547D02*
X139174912Y-85488073D01*
X137996862Y-84986176D02*
X137730077Y-85252960D01*
X138946247Y-84096084D02*
X138921311Y-84096084D01*
X138897001Y-84101633D02*
X138874534Y-84112452D01*
X135152580Y-87864814D02*
X135152580Y-87889749D01*
X139174912Y-85168853D02*
X139204060Y-85229379D01*
X139219009Y-85294874D02*
X139219009Y-85362052D01*
X135809950Y-88821657D02*
X135780802Y-88882183D01*
X138088070Y-84954261D02*
X138063134Y-84954261D01*
X138855039Y-84127999D02*
X138588254Y-84394783D01*
X138588254Y-84394783D02*
X138572707Y-84414278D01*
X135367176Y-88976591D02*
X135314652Y-88934706D01*
X138231976Y-86431010D02*
X138171451Y-86460156D01*
X138561888Y-84436744D02*
X138556339Y-84461055D01*
X138038824Y-84959810D02*
X138016358Y-84970629D01*
X138572707Y-84414278D02*
X138561888Y-84436744D01*
X136006656Y-87065533D02*
X136017475Y-87087999D01*
X136843822Y-86996843D02*
X136792222Y-86985066D01*
X138666994Y-84631003D02*
X138657347Y-84640653D01*
X138761286Y-85582481D02*
X138708762Y-85540596D01*
X138556339Y-84485990D02*
X138561888Y-84510301D01*
X138561888Y-84510301D02*
X138572707Y-84532767D01*
X136437791Y-86667684D02*
X136415325Y-86656865D01*
X139219009Y-85362052D02*
X139204060Y-85427547D01*
X134872564Y-88585177D02*
X134805386Y-88585177D01*
X137730077Y-85252960D02*
X137714530Y-85272455D01*
X137127420Y-86504838D02*
X137160420Y-86546218D01*
X138572707Y-84532767D02*
X138588254Y-84552263D01*
X138171451Y-86460156D02*
X138105956Y-86475106D01*
X135051106Y-88671160D02*
X134998585Y-88629274D01*
X137730077Y-85410440D02*
X138284498Y-85964860D01*
X135589264Y-87516211D02*
X135566798Y-87505392D01*
X138588254Y-84552263D02*
X138666994Y-84631003D01*
X138326384Y-86017381D02*
X138355532Y-86077907D01*
X138105956Y-86475106D02*
X138038778Y-86475105D01*
X135168948Y-87818037D02*
X135158129Y-87840503D01*
X134626842Y-88671160D02*
X134190341Y-89107659D01*
X136391015Y-86651316D02*
X136366079Y-86651316D01*
X138154342Y-84986176D02*
X138134846Y-84970629D01*
X138370481Y-86143402D02*
X138370481Y-86210580D01*
X137183384Y-86593904D02*
X137195161Y-86645503D01*
X139204060Y-85229379D02*
X139219009Y-85294874D01*
X139174912Y-85488073D02*
X139133026Y-85540596D01*
X136001107Y-87016287D02*
X136001107Y-87041222D01*
X138063134Y-84954261D02*
X138038824Y-84959810D01*
X137714530Y-85272455D02*
X137703711Y-85294921D01*
X139080504Y-85582482D02*
X139019979Y-85611628D01*
X139019979Y-85611628D02*
X138954484Y-85626578D01*
X136341769Y-86656865D02*
X136319303Y-86667684D01*
X137190296Y-85808338D02*
X137167830Y-85819157D01*
X138954484Y-85626578D02*
X138887306Y-85626577D01*
X136366079Y-86651316D02*
X136341769Y-86656865D01*
X137698162Y-85344167D02*
X137703711Y-85368478D01*
X138887306Y-85626577D02*
X138821811Y-85611629D01*
X138821811Y-85611629D02*
X138761286Y-85582481D01*
X138134846Y-84970629D02*
X138112380Y-84959810D01*
X136849634Y-86167760D02*
X136849634Y-86192695D01*
X138708762Y-85540596D02*
X138154342Y-84986176D01*
X135168948Y-87936526D02*
X135184495Y-87956022D01*
X137239542Y-85802789D02*
X137214606Y-85802789D01*
X138112380Y-84959810D02*
X138088070Y-84954261D01*
X137214606Y-85802789D02*
X137190296Y-85808338D01*
X137703711Y-85294921D02*
X137698162Y-85319232D01*
X138284498Y-86389124D02*
X138231976Y-86431010D01*
X137698162Y-85319232D02*
X137698162Y-85344167D01*
X134998585Y-88629274D02*
X134938059Y-88600126D01*
X136033022Y-86950015D02*
X136017475Y-86969510D01*
X135517552Y-87499843D02*
X135493242Y-87505392D01*
X137703711Y-85368478D02*
X137714530Y-85390944D01*
X137167830Y-85819157D02*
X137148334Y-85834704D01*
X138355532Y-86276075D02*
X138326384Y-86336601D01*
X135470776Y-87516211D02*
X135451280Y-87531758D01*
X136033022Y-87107495D02*
X136243538Y-87318010D01*
X137860234Y-86389124D02*
X137305814Y-85834704D01*
X138326384Y-86336601D02*
X138284498Y-86389124D01*
X134805386Y-88585177D02*
X134739891Y-88600126D01*
X138038778Y-86475105D02*
X137973283Y-86460157D01*
X136243538Y-87581556D02*
X136082821Y-87742274D01*
X137263852Y-85808338D02*
X137239542Y-85802789D01*
X137973283Y-86460157D02*
X137912758Y-86431009D01*
X136299807Y-86683231D02*
X136033022Y-86950015D01*
X137305814Y-85834704D02*
X137286318Y-85819157D01*
X137912758Y-86431009D02*
X137860234Y-86389124D01*
X137148334Y-85834704D02*
X136881549Y-86101488D01*
X136881549Y-86101488D02*
X136866002Y-86120983D01*
X137160421Y-86797714D02*
X137127421Y-86839094D01*
X136855183Y-86143449D02*
X136849634Y-86167760D01*
X136849634Y-86192695D02*
X136855183Y-86217006D01*
X134679365Y-88629274D02*
X134626842Y-88671160D01*
X136855183Y-86217006D02*
X136866002Y-86239472D01*
X136866002Y-86239472D02*
X136881549Y-86258968D01*
X136881549Y-86258968D02*
X137127420Y-86504838D01*
X137160420Y-86546218D02*
X137183384Y-86593904D01*
X137195161Y-86645503D02*
X137195162Y-86698429D01*
X137195162Y-86698429D02*
X137183384Y-86750030D01*
X137183384Y-86750030D02*
X137160421Y-86797714D01*
X136948348Y-86985066D02*
X136896748Y-86996844D01*
X137127421Y-86839094D02*
X137037413Y-86929103D01*
X137037413Y-86929103D02*
X136996034Y-86962101D01*
X136996034Y-86962101D02*
X136948348Y-86985066D01*
X136896748Y-86996844D02*
X136843822Y-86996843D01*
X136744536Y-86962102D02*
X136703157Y-86929102D01*
X136457287Y-86683231D02*
X136437791Y-86667684D01*
X136703157Y-86929102D02*
X136457287Y-86683231D01*
X136415325Y-86656865D02*
X136391015Y-86651316D01*
X127168601Y-97241399D02*
X126939999Y-97470001D01*
X136319303Y-86667684D02*
X136299807Y-86683231D01*
X136001107Y-87041222D02*
X136006656Y-87065533D01*
X135851901Y-87768292D02*
X135819275Y-87742274D01*
X136017475Y-87087999D02*
X136033022Y-87107495D01*
X136287664Y-87388233D02*
X136296948Y-87428918D01*
X136296948Y-87428918D02*
X136296948Y-87470648D01*
X135158129Y-87914060D02*
X135168948Y-87936526D01*
X136296948Y-87470648D02*
X136287664Y-87511331D01*
X136287664Y-87511331D02*
X136269556Y-87548930D01*
X136269556Y-87548930D02*
X136243538Y-87581556D01*
X136082821Y-87742274D02*
X136050195Y-87768292D01*
X136050195Y-87768292D02*
X136012597Y-87786398D01*
X136012597Y-87786398D02*
X135971913Y-87795684D01*
X135889499Y-87786398D02*
X135851901Y-87768292D01*
X135819275Y-87742274D02*
X135608760Y-87531758D01*
X135427701Y-89005739D02*
X135367176Y-88976591D01*
X135608760Y-87531758D02*
X135589264Y-87516211D01*
X135542488Y-87499843D02*
X135517552Y-87499843D01*
X135493242Y-87505392D02*
X135470776Y-87516211D01*
X135451280Y-87531758D02*
X135184495Y-87798542D01*
X135184495Y-87798542D02*
X135168948Y-87818037D01*
X135158129Y-87840503D02*
X135152580Y-87864814D01*
X135152580Y-87889749D02*
X135158129Y-87914060D01*
X135780802Y-88562963D02*
X135809950Y-88623489D01*
X127168601Y-96129399D02*
X127168601Y-97241399D01*
X135809950Y-88623489D02*
X135824899Y-88688984D01*
X135824899Y-88756162D02*
X135809950Y-88821657D01*
X135780802Y-88882183D02*
X135738916Y-88934706D01*
X135738916Y-88934706D02*
X135686394Y-88976592D01*
X135625869Y-89005738D02*
X135560374Y-89020688D01*
X135560374Y-89020688D02*
X135493196Y-89020687D01*
X135493196Y-89020687D02*
X135427701Y-89005739D01*
X135314652Y-88934706D02*
X135051106Y-88671160D01*
X134938059Y-88600126D02*
X134872564Y-88585177D01*
X134739891Y-88600126D02*
X134679365Y-88629274D01*
X134190341Y-89107659D02*
X127168601Y-96129399D01*
X123940000Y-98470000D02*
X124647106Y-98470000D01*
X137711168Y-89098229D02*
X137726117Y-89032735D01*
X124647106Y-98470000D02*
X124875707Y-98698601D01*
X136712872Y-88868018D02*
X136780051Y-88868018D01*
X136701316Y-87848194D02*
X136659431Y-87795671D01*
X136701316Y-87423930D02*
X136753839Y-87382045D01*
X136615333Y-87669652D02*
X136615334Y-87602472D01*
X124875707Y-98698601D02*
X126789729Y-98698601D01*
X126789729Y-98698601D02*
X136534330Y-88954000D01*
X137726117Y-88965556D02*
X137711168Y-88900062D01*
X136534330Y-88954000D02*
X136586852Y-88912114D01*
X137640136Y-89211278D02*
X137682021Y-89158755D01*
X161674370Y-83594630D02*
X162817401Y-82451599D01*
X136906071Y-88912114D02*
X136958594Y-88954000D01*
X136780051Y-88868018D02*
X136845545Y-88882967D01*
X137394415Y-89297260D02*
X137461594Y-89297260D01*
X136586852Y-88912114D02*
X136647378Y-88882967D01*
X136659430Y-87476453D02*
X136701316Y-87423930D01*
X137561403Y-87767191D02*
X137628581Y-87767192D01*
X136647378Y-88882967D02*
X136712872Y-88868018D01*
X137328920Y-89282311D02*
X137394415Y-89297260D01*
X136615334Y-87602472D02*
X136630282Y-87536979D01*
X136659431Y-87795671D02*
X136630283Y-87735145D01*
X137461594Y-89297260D02*
X137527088Y-89282311D01*
X136845545Y-88882967D02*
X136906071Y-88912114D01*
X136958594Y-88954000D02*
X137215872Y-89211278D01*
X136753839Y-87382045D02*
X136814364Y-87352899D01*
X137215872Y-89211278D02*
X137268395Y-89253163D01*
X137268395Y-89253163D02*
X137328920Y-89282311D01*
X137527088Y-89282311D02*
X137587614Y-89253163D01*
X137587614Y-89253163D02*
X137640136Y-89211278D01*
X137073057Y-87382046D02*
X137125580Y-87423931D01*
X137682021Y-89158755D02*
X137711168Y-89098229D01*
X136879859Y-87337949D02*
X136947037Y-87337950D01*
X137726117Y-89032735D02*
X137726117Y-88965556D01*
X137711168Y-88900062D02*
X137682021Y-88839536D01*
X137682021Y-88839536D02*
X137640136Y-88787013D01*
X137640136Y-88787013D02*
X136701316Y-87848194D01*
X137435382Y-87723095D02*
X137495908Y-87752242D01*
X136630283Y-87735145D02*
X136615333Y-87669652D01*
X137754602Y-87723094D02*
X137807123Y-87681210D01*
X136630282Y-87536979D02*
X136659430Y-87476453D01*
X136814364Y-87352899D02*
X136879859Y-87337949D01*
X136947037Y-87337950D02*
X137012532Y-87352898D01*
X137012532Y-87352898D02*
X137073057Y-87382046D01*
X137125580Y-87423931D02*
X137382859Y-87681210D01*
X137807123Y-87681210D02*
X138222834Y-87265496D01*
X137382859Y-87681210D02*
X137435382Y-87723095D01*
X137495908Y-87752242D02*
X137561403Y-87767191D01*
X137628581Y-87767192D02*
X137694076Y-87752242D01*
X137694076Y-87752242D02*
X137754602Y-87723094D01*
X138222834Y-87265496D02*
X141893700Y-83594630D01*
X141893700Y-83594630D02*
X161674370Y-83594630D01*
X162817401Y-82451599D02*
X163681000Y-81588000D01*
X133455000Y-108385000D02*
X133455000Y-98345000D01*
X137530000Y-91470000D02*
X140440000Y-91470000D01*
X135000000Y-94000000D02*
X137530000Y-91470000D01*
X135000000Y-96800000D02*
X135000000Y-94000000D01*
X133455000Y-98345000D02*
X135000000Y-96800000D01*
D20*
X140440000Y-91470000D02*
X140430000Y-91470000D01*
D21*
G36*
X175105655Y-76744926D02*
X175195225Y-76804774D01*
X175255074Y-76894345D01*
X175290000Y-77069930D01*
X175290000Y-111930070D01*
X175255074Y-112105655D01*
X175195225Y-112195226D01*
X175105655Y-112255074D01*
X174930070Y-112290000D01*
X117069930Y-112290000D01*
X116894345Y-112255074D01*
X116804774Y-112195225D01*
X116744926Y-112105655D01*
X116710000Y-111930070D01*
X116710000Y-94324972D01*
X120291888Y-94324972D01*
X120323783Y-94775375D01*
X120434783Y-95043352D01*
X120649893Y-95080499D01*
X120533666Y-95196726D01*
X120570846Y-95233906D01*
X120478355Y-95326235D01*
X120305197Y-95743244D01*
X120304803Y-96194775D01*
X120477233Y-96612086D01*
X120584867Y-96719908D01*
X120478355Y-96826235D01*
X120305197Y-97243244D01*
X120304803Y-97694775D01*
X120477233Y-98112086D01*
X120584867Y-98219908D01*
X120478355Y-98326235D01*
X120305197Y-98743244D01*
X120304803Y-99194775D01*
X120477233Y-99612086D01*
X120584867Y-99719908D01*
X120478355Y-99826235D01*
X120305197Y-100243244D01*
X120304803Y-100694775D01*
X120477233Y-101112086D01*
X120796235Y-101431645D01*
X121213244Y-101604803D01*
X121664775Y-101605197D01*
X122082086Y-101432767D01*
X122401645Y-101113765D01*
X122574803Y-100696756D01*
X122575197Y-100245225D01*
X122402767Y-99827914D01*
X122295133Y-99720092D01*
X122401645Y-99613765D01*
X122574803Y-99196756D01*
X122575197Y-98745225D01*
X122436602Y-98409801D01*
X122805052Y-98409801D01*
X122804803Y-98694775D01*
X122977233Y-99112086D01*
X123084867Y-99219908D01*
X122978355Y-99326235D01*
X122805197Y-99743244D01*
X122804803Y-100194775D01*
X122977233Y-100612086D01*
X123296235Y-100931645D01*
X123473408Y-101005214D01*
X123203914Y-101116567D01*
X122588727Y-101730681D01*
X122255380Y-102533470D01*
X122254621Y-103402717D01*
X122586567Y-104206086D01*
X123200681Y-104821273D01*
X124003470Y-105154620D01*
X124872717Y-105155379D01*
X125676086Y-104823433D01*
X126291273Y-104209319D01*
X126624620Y-103406530D01*
X126625379Y-102537283D01*
X126293433Y-101733914D01*
X125679319Y-101118727D01*
X124876530Y-100785380D01*
X124729859Y-100785252D01*
X124901645Y-100613765D01*
X125074803Y-100196756D01*
X125075197Y-99745225D01*
X124936602Y-99409801D01*
X125305052Y-99409801D01*
X125304803Y-99694775D01*
X125477233Y-100112086D01*
X125796235Y-100431645D01*
X126213244Y-100604803D01*
X126664775Y-100605197D01*
X127082086Y-100432767D01*
X127401645Y-100113765D01*
X127574803Y-99696756D01*
X127575197Y-99245225D01*
X127479791Y-99014327D01*
X136751550Y-89742568D01*
X136772451Y-89767320D01*
X136824974Y-89809205D01*
X136895965Y-89845879D01*
X136916220Y-89861123D01*
X136917368Y-89862337D01*
X136918516Y-89862851D01*
X136959811Y-89893929D01*
X137020336Y-89923077D01*
X137070394Y-89935990D01*
X137071515Y-89936569D01*
X137073184Y-89936710D01*
X137097716Y-89943038D01*
X137120864Y-89953396D01*
X137122251Y-89954323D01*
X137123483Y-89954568D01*
X137170661Y-89975679D01*
X137236156Y-89990628D01*
X137287821Y-89992078D01*
X137289036Y-89992391D01*
X137290686Y-89992158D01*
X137316035Y-89992869D01*
X137340909Y-89997817D01*
X137342468Y-89998412D01*
X137343723Y-89998377D01*
X137394415Y-90008460D01*
X137461594Y-90008460D01*
X137512290Y-89998376D01*
X137513543Y-89998411D01*
X137515098Y-89997817D01*
X137539972Y-89992870D01*
X137565314Y-89992159D01*
X137566968Y-89992392D01*
X137568185Y-89992078D01*
X137619855Y-89990628D01*
X137685349Y-89975679D01*
X137732526Y-89954568D01*
X137733758Y-89954323D01*
X137735145Y-89953396D01*
X137758290Y-89943039D01*
X137782836Y-89936707D01*
X137784501Y-89936567D01*
X137785619Y-89935990D01*
X137835668Y-89923079D01*
X137896194Y-89893931D01*
X137937496Y-89862848D01*
X137938642Y-89862335D01*
X137939788Y-89861123D01*
X137960042Y-89845880D01*
X137982572Y-89834241D01*
X137984162Y-89833734D01*
X137985122Y-89832923D01*
X138031041Y-89809201D01*
X138083562Y-89767316D01*
X138116910Y-89727824D01*
X138117916Y-89727067D01*
X138118766Y-89725626D01*
X138135120Y-89706259D01*
X138154496Y-89689897D01*
X138155932Y-89689050D01*
X138156687Y-89688047D01*
X138196178Y-89654699D01*
X138238063Y-89602176D01*
X138261784Y-89556258D01*
X138262595Y-89555298D01*
X138263102Y-89553708D01*
X138274742Y-89531176D01*
X138289977Y-89510932D01*
X138291192Y-89509783D01*
X138291706Y-89508634D01*
X138322793Y-89467326D01*
X138351940Y-89406801D01*
X138364849Y-89356753D01*
X138365427Y-89355635D01*
X138365567Y-89353969D01*
X138371898Y-89329428D01*
X138382253Y-89306286D01*
X138383180Y-89304899D01*
X138383425Y-89303667D01*
X138404536Y-89256490D01*
X138419485Y-89190997D01*
X138420935Y-89139316D01*
X138421249Y-89138100D01*
X138421016Y-89136448D01*
X138421727Y-89111112D01*
X138426674Y-89086239D01*
X138427269Y-89084681D01*
X138427234Y-89083426D01*
X138437317Y-89032735D01*
X138437317Y-88965556D01*
X138427234Y-88914865D01*
X138427269Y-88913610D01*
X138426674Y-88912052D01*
X138421727Y-88887179D01*
X138421016Y-88861843D01*
X138421249Y-88860191D01*
X138420935Y-88858975D01*
X138419485Y-88807294D01*
X138404536Y-88741801D01*
X138383425Y-88694624D01*
X138383180Y-88693392D01*
X138382253Y-88692005D01*
X138371898Y-88668863D01*
X138365567Y-88644322D01*
X138365427Y-88642656D01*
X138364849Y-88641538D01*
X138351940Y-88591490D01*
X138322793Y-88530965D01*
X138291706Y-88489657D01*
X138291192Y-88488508D01*
X138289977Y-88487359D01*
X138274742Y-88467115D01*
X138238063Y-88396115D01*
X138196178Y-88343592D01*
X138165407Y-88317608D01*
X138154667Y-88301533D01*
X138198027Y-88279133D01*
X138250548Y-88237249D01*
X138276531Y-88206479D01*
X138310019Y-88184103D01*
X138725730Y-87768389D01*
X138725732Y-87768386D01*
X140964666Y-85529452D01*
X140755380Y-86033470D01*
X140754621Y-86902717D01*
X141086567Y-87706086D01*
X141700681Y-88321273D01*
X142254028Y-88551043D01*
X141978355Y-88826235D01*
X141805197Y-89243244D01*
X141804803Y-89694775D01*
X141977233Y-90112086D01*
X142084867Y-90219908D01*
X141978355Y-90326235D01*
X141805197Y-90743244D01*
X141804803Y-91194775D01*
X141977233Y-91612086D01*
X142084867Y-91719908D01*
X141978355Y-91826235D01*
X141805197Y-92243244D01*
X141804803Y-92694775D01*
X141977233Y-93112086D01*
X142084867Y-93219908D01*
X141978355Y-93326235D01*
X141805197Y-93743244D01*
X141804803Y-94194775D01*
X141977233Y-94612086D01*
X142084867Y-94719908D01*
X141978355Y-94826235D01*
X141805197Y-95243244D01*
X141804803Y-95694775D01*
X141977233Y-96112086D01*
X142084867Y-96219908D01*
X141978355Y-96326235D01*
X141805197Y-96743244D01*
X141804983Y-96988800D01*
X141469244Y-96988800D01*
X141402767Y-96827914D01*
X141295133Y-96720092D01*
X141401645Y-96613765D01*
X141574803Y-96196756D01*
X141575197Y-95745225D01*
X141402767Y-95327914D01*
X141309038Y-95234022D01*
X141346334Y-95196726D01*
X141230107Y-95080499D01*
X141445217Y-95043352D01*
X141588112Y-94615028D01*
X141556217Y-94164625D01*
X141445217Y-93896648D01*
X141230107Y-93859501D01*
X141346334Y-93743274D01*
X141309154Y-93706094D01*
X141401645Y-93613765D01*
X141574803Y-93196756D01*
X141575197Y-92745225D01*
X141402767Y-92327914D01*
X141295133Y-92220092D01*
X141401645Y-92113765D01*
X141574803Y-91696756D01*
X141575197Y-91245225D01*
X141402767Y-90827914D01*
X141295133Y-90720092D01*
X141401645Y-90613765D01*
X141574803Y-90196756D01*
X141575197Y-89745225D01*
X141402767Y-89327914D01*
X141083765Y-89008355D01*
X140666756Y-88835197D01*
X140215225Y-88834803D01*
X139797914Y-89007233D01*
X139478355Y-89326235D01*
X139305197Y-89743244D01*
X139304803Y-90194775D01*
X139477233Y-90612086D01*
X139584867Y-90719908D01*
X139545908Y-90758800D01*
X137530000Y-90758800D01*
X137257836Y-90812937D01*
X137224522Y-90835197D01*
X137027105Y-90967106D01*
X134497106Y-93497106D01*
X134342937Y-93727835D01*
X134301762Y-93934837D01*
X134288800Y-94000000D01*
X134288800Y-96505412D01*
X132952106Y-97842106D01*
X132797937Y-98072835D01*
X132756934Y-98278971D01*
X132743800Y-98345000D01*
X132743800Y-106880377D01*
X132287567Y-107185222D01*
X131929675Y-107720845D01*
X131804000Y-108352655D01*
X131804000Y-108417345D01*
X131929675Y-109049155D01*
X132287567Y-109584778D01*
X132823190Y-109942670D01*
X133455000Y-110068345D01*
X134086810Y-109942670D01*
X134423001Y-109718034D01*
X134440673Y-109760698D01*
X134619301Y-109939327D01*
X134852690Y-110036000D01*
X135709250Y-110036000D01*
X135868000Y-109877250D01*
X135868000Y-108512000D01*
X136122000Y-108512000D01*
X136122000Y-109877250D01*
X136280750Y-110036000D01*
X137137310Y-110036000D01*
X137370699Y-109939327D01*
X137549327Y-109760698D01*
X137646000Y-109527309D01*
X137646000Y-108670750D01*
X137639650Y-108664400D01*
X141849960Y-108664400D01*
X141849960Y-110391600D01*
X141894238Y-110626917D01*
X142033310Y-110843041D01*
X142245510Y-110988031D01*
X142497400Y-111039040D01*
X144224600Y-111039040D01*
X144459917Y-110994762D01*
X144676041Y-110855690D01*
X144821031Y-110643490D01*
X144829908Y-110599655D01*
X145298152Y-110912526D01*
X145871641Y-111026600D01*
X145930359Y-111026600D01*
X146503848Y-110912526D01*
X146990029Y-110587670D01*
X147171000Y-110316828D01*
X147351971Y-110587670D01*
X147838152Y-110912526D01*
X148411641Y-111026600D01*
X148470359Y-111026600D01*
X149043848Y-110912526D01*
X149530029Y-110587670D01*
X149711000Y-110316828D01*
X149891971Y-110587670D01*
X150378152Y-110912526D01*
X150951641Y-111026600D01*
X151010359Y-111026600D01*
X151583848Y-110912526D01*
X152070029Y-110587670D01*
X152251000Y-110316828D01*
X152431971Y-110587670D01*
X152918152Y-110912526D01*
X153491641Y-111026600D01*
X153550359Y-111026600D01*
X154123848Y-110912526D01*
X154610029Y-110587670D01*
X154791000Y-110316828D01*
X154971971Y-110587670D01*
X155458152Y-110912526D01*
X156031641Y-111026600D01*
X156090359Y-111026600D01*
X156663848Y-110912526D01*
X157150029Y-110587670D01*
X157331000Y-110316828D01*
X157511971Y-110587670D01*
X157998152Y-110912526D01*
X158571641Y-111026600D01*
X158630359Y-111026600D01*
X159203848Y-110912526D01*
X159690029Y-110587670D01*
X159871000Y-110316828D01*
X160051971Y-110587670D01*
X160538152Y-110912526D01*
X161111641Y-111026600D01*
X161170359Y-111026600D01*
X161743848Y-110912526D01*
X162230029Y-110587670D01*
X162411000Y-110316828D01*
X162591971Y-110587670D01*
X163078152Y-110912526D01*
X163651641Y-111026600D01*
X163710359Y-111026600D01*
X164283848Y-110912526D01*
X164770029Y-110587670D01*
X164951000Y-110316828D01*
X165131971Y-110587670D01*
X165618152Y-110912526D01*
X166191641Y-111026600D01*
X166250359Y-111026600D01*
X166823848Y-110912526D01*
X167310029Y-110587670D01*
X167634885Y-110101489D01*
X167748959Y-109528000D01*
X167634885Y-108954511D01*
X167310029Y-108468330D01*
X166986772Y-108252336D01*
X167109490Y-108194821D01*
X167503688Y-107762947D01*
X167675958Y-107347026D01*
X167554817Y-107115000D01*
X166348000Y-107115000D01*
X166348000Y-107135000D01*
X166094000Y-107135000D01*
X166094000Y-107115000D01*
X166074000Y-107115000D01*
X166074000Y-106861000D01*
X166094000Y-106861000D01*
X166094000Y-105653531D01*
X166348000Y-105653531D01*
X166348000Y-106861000D01*
X167554817Y-106861000D01*
X167675958Y-106628974D01*
X167503688Y-106213053D01*
X167109490Y-105781179D01*
X166580027Y-105533032D01*
X166348000Y-105653531D01*
X166094000Y-105653531D01*
X165861973Y-105533032D01*
X165332510Y-105781179D01*
X164950992Y-106199161D01*
X164770029Y-105928330D01*
X164283848Y-105603474D01*
X163710359Y-105489400D01*
X163651641Y-105489400D01*
X163078152Y-105603474D01*
X162591971Y-105928330D01*
X162411000Y-106199172D01*
X162230029Y-105928330D01*
X161743848Y-105603474D01*
X161170359Y-105489400D01*
X161111641Y-105489400D01*
X160538152Y-105603474D01*
X160051971Y-105928330D01*
X159871000Y-106199172D01*
X159690029Y-105928330D01*
X159203848Y-105603474D01*
X158630359Y-105489400D01*
X158571641Y-105489400D01*
X157998152Y-105603474D01*
X157511971Y-105928330D01*
X157331000Y-106199172D01*
X157150029Y-105928330D01*
X156663848Y-105603474D01*
X156090359Y-105489400D01*
X156031641Y-105489400D01*
X155458152Y-105603474D01*
X154971971Y-105928330D01*
X154791000Y-106199172D01*
X154610029Y-105928330D01*
X154123848Y-105603474D01*
X153550359Y-105489400D01*
X153491641Y-105489400D01*
X152918152Y-105603474D01*
X152431971Y-105928330D01*
X152251000Y-106199172D01*
X152070029Y-105928330D01*
X151583848Y-105603474D01*
X151010359Y-105489400D01*
X150951641Y-105489400D01*
X150378152Y-105603474D01*
X149891971Y-105928330D01*
X149711000Y-106199172D01*
X149530029Y-105928330D01*
X149043848Y-105603474D01*
X148470359Y-105489400D01*
X148411641Y-105489400D01*
X147838152Y-105603474D01*
X147351971Y-105928330D01*
X147171000Y-106199172D01*
X146990029Y-105928330D01*
X146503848Y-105603474D01*
X145930359Y-105489400D01*
X145871641Y-105489400D01*
X145298152Y-105603474D01*
X144811971Y-105928330D01*
X144631008Y-106199161D01*
X144249490Y-105781179D01*
X143720027Y-105533032D01*
X143488000Y-105653531D01*
X143488000Y-106861000D01*
X143508000Y-106861000D01*
X143508000Y-107115000D01*
X143488000Y-107115000D01*
X143488000Y-107135000D01*
X143234000Y-107135000D01*
X143234000Y-107115000D01*
X142027183Y-107115000D01*
X141906042Y-107347026D01*
X142078312Y-107762947D01*
X142337609Y-108047027D01*
X142262083Y-108061238D01*
X142045959Y-108200310D01*
X141900969Y-108412510D01*
X141849960Y-108664400D01*
X137639650Y-108664400D01*
X137487250Y-108512000D01*
X136122000Y-108512000D01*
X135868000Y-108512000D01*
X135848000Y-108512000D01*
X135848000Y-108258000D01*
X135868000Y-108258000D01*
X135868000Y-106892750D01*
X136122000Y-106892750D01*
X136122000Y-108258000D01*
X137487250Y-108258000D01*
X137646000Y-108099250D01*
X137646000Y-107242691D01*
X137549327Y-107009302D01*
X137370699Y-106830673D01*
X137137310Y-106734000D01*
X136280750Y-106734000D01*
X136122000Y-106892750D01*
X135868000Y-106892750D01*
X135709250Y-106734000D01*
X134852690Y-106734000D01*
X134619301Y-106830673D01*
X134440673Y-107009302D01*
X134423001Y-107051966D01*
X134166200Y-106880377D01*
X134166200Y-106628974D01*
X141906042Y-106628974D01*
X142027183Y-106861000D01*
X143234000Y-106861000D01*
X143234000Y-105653531D01*
X143001973Y-105533032D01*
X142472510Y-105781179D01*
X142078312Y-106213053D01*
X141906042Y-106628974D01*
X134166200Y-106628974D01*
X134166200Y-98639588D01*
X135502894Y-97302894D01*
X135657063Y-97072165D01*
X135711200Y-96800000D01*
X135711200Y-94294588D01*
X137824589Y-92181200D01*
X139546227Y-92181200D01*
X139584867Y-92219908D01*
X139478355Y-92326235D01*
X139305197Y-92743244D01*
X139304803Y-93194775D01*
X139477233Y-93612086D01*
X139570962Y-93705978D01*
X139533666Y-93743274D01*
X139649893Y-93859501D01*
X139434783Y-93896648D01*
X139291888Y-94324972D01*
X139323783Y-94775375D01*
X139434783Y-95043352D01*
X139649893Y-95080499D01*
X139533666Y-95196726D01*
X139570846Y-95233906D01*
X139478355Y-95326235D01*
X139305197Y-95743244D01*
X139304803Y-96194775D01*
X139477233Y-96612086D01*
X139584867Y-96719908D01*
X139478355Y-96826235D01*
X139305197Y-97243244D01*
X139304803Y-97694775D01*
X139477233Y-98112086D01*
X139584867Y-98219908D01*
X139478355Y-98326235D01*
X139305197Y-98743244D01*
X139304803Y-99194775D01*
X139477233Y-99612086D01*
X139584867Y-99719908D01*
X139478355Y-99826235D01*
X139305197Y-100243244D01*
X139304803Y-100694775D01*
X139477233Y-101112086D01*
X139796235Y-101431645D01*
X140213244Y-101604803D01*
X140664775Y-101605197D01*
X141082086Y-101432767D01*
X141401645Y-101113765D01*
X141574803Y-100696756D01*
X141575197Y-100245225D01*
X141402767Y-99827914D01*
X141295133Y-99720092D01*
X141401645Y-99613765D01*
X141574803Y-99196756D01*
X141575197Y-98745225D01*
X141437180Y-98411200D01*
X141805050Y-98411200D01*
X141804803Y-98694775D01*
X141977233Y-99112086D01*
X142084867Y-99219908D01*
X141978355Y-99326235D01*
X141805197Y-99743244D01*
X141804803Y-100194775D01*
X141977233Y-100612086D01*
X142296235Y-100931645D01*
X142713244Y-101104803D01*
X143164775Y-101105197D01*
X143582086Y-100932767D01*
X143901645Y-100613765D01*
X144074803Y-100196756D01*
X144075197Y-99745225D01*
X143902767Y-99327914D01*
X143795133Y-99220092D01*
X143901645Y-99113765D01*
X144074803Y-98696756D01*
X144075083Y-98376374D01*
X144172165Y-98357063D01*
X144328654Y-98252500D01*
X144477233Y-98612086D01*
X144584867Y-98719908D01*
X144478355Y-98826235D01*
X144305197Y-99243244D01*
X144304803Y-99694775D01*
X144477233Y-100112086D01*
X144796235Y-100431645D01*
X145213244Y-100604803D01*
X145664775Y-100605197D01*
X146082086Y-100432767D01*
X146401645Y-100113765D01*
X146574803Y-99696756D01*
X146575197Y-99245225D01*
X146402767Y-98827914D01*
X146295133Y-98720092D01*
X146401645Y-98613765D01*
X146574803Y-98196756D01*
X146575052Y-97911200D01*
X166005412Y-97911200D01*
X166697106Y-98602894D01*
X166927835Y-98757063D01*
X166968502Y-98765152D01*
X167200000Y-98811200D01*
X167875314Y-98811200D01*
X167770400Y-99338641D01*
X167770400Y-99397359D01*
X167884474Y-99970848D01*
X168209330Y-100457029D01*
X168480172Y-100638000D01*
X168209330Y-100818971D01*
X167884474Y-101305152D01*
X167770400Y-101878641D01*
X167770400Y-101937359D01*
X167884474Y-102510848D01*
X168209330Y-102997029D01*
X168695511Y-103321885D01*
X169269000Y-103435959D01*
X169842489Y-103321885D01*
X170328670Y-102997029D01*
X170337805Y-102983358D01*
X170342238Y-103006917D01*
X170481310Y-103223041D01*
X170693510Y-103368031D01*
X170945400Y-103419040D01*
X172672600Y-103419040D01*
X172907917Y-103374762D01*
X173124041Y-103235690D01*
X173269031Y-103023490D01*
X173320040Y-102771600D01*
X173320040Y-101044400D01*
X173275762Y-100809083D01*
X173136690Y-100592959D01*
X172924490Y-100447969D01*
X172880655Y-100439092D01*
X173193526Y-99970848D01*
X173307600Y-99397359D01*
X173307600Y-99338641D01*
X173193526Y-98765152D01*
X172868670Y-98278971D01*
X172597828Y-98098000D01*
X172868670Y-97917029D01*
X173193526Y-97430848D01*
X173307600Y-96857359D01*
X173307600Y-96798641D01*
X173193526Y-96225152D01*
X172868670Y-95738971D01*
X172597828Y-95558000D01*
X172868670Y-95377029D01*
X173193526Y-94890848D01*
X173307600Y-94317359D01*
X173307600Y-94258641D01*
X173193526Y-93685152D01*
X172868670Y-93198971D01*
X172597828Y-93018000D01*
X172868670Y-92837029D01*
X173193526Y-92350848D01*
X173307600Y-91777359D01*
X173307600Y-91718641D01*
X173193526Y-91145152D01*
X172868670Y-90658971D01*
X172597828Y-90478000D01*
X172868670Y-90297029D01*
X173193526Y-89810848D01*
X173307600Y-89237359D01*
X173307600Y-89178641D01*
X173193526Y-88605152D01*
X172868670Y-88118971D01*
X172597828Y-87938000D01*
X172868670Y-87757029D01*
X173193526Y-87270848D01*
X173307600Y-86697359D01*
X173307600Y-86638641D01*
X173193526Y-86065152D01*
X172868670Y-85578971D01*
X172382489Y-85254115D01*
X171809000Y-85140041D01*
X171235511Y-85254115D01*
X170749330Y-85578971D01*
X170533336Y-85902228D01*
X170475821Y-85779510D01*
X170043947Y-85385312D01*
X169628026Y-85213042D01*
X169396000Y-85334183D01*
X169396000Y-86541000D01*
X169416000Y-86541000D01*
X169416000Y-86795000D01*
X169396000Y-86795000D01*
X169396000Y-86815000D01*
X169142000Y-86815000D01*
X169142000Y-86795000D01*
X167934531Y-86795000D01*
X167814032Y-87027027D01*
X168062179Y-87556490D01*
X168480161Y-87938008D01*
X168209330Y-88118971D01*
X167884474Y-88605152D01*
X167770400Y-89178641D01*
X167770400Y-89237359D01*
X167884474Y-89810848D01*
X168209330Y-90297029D01*
X168480172Y-90478000D01*
X168209330Y-90658971D01*
X167884474Y-91145152D01*
X167770400Y-91718641D01*
X167770400Y-91777359D01*
X167884474Y-92350848D01*
X168164627Y-92770126D01*
X165904555Y-95030199D01*
X146574948Y-95030199D01*
X146575197Y-94745225D01*
X146402767Y-94327914D01*
X146295133Y-94220092D01*
X146401645Y-94113765D01*
X146574803Y-93696756D01*
X146575197Y-93245225D01*
X146402767Y-92827914D01*
X146295133Y-92720092D01*
X146401645Y-92613765D01*
X146574803Y-92196756D01*
X146575197Y-91745225D01*
X146402767Y-91327914D01*
X146295133Y-91220092D01*
X146401645Y-91113765D01*
X146574803Y-90696756D01*
X146575197Y-90245225D01*
X146402767Y-89827914D01*
X146295133Y-89720092D01*
X146401645Y-89613765D01*
X146574803Y-89196756D01*
X146575197Y-88745225D01*
X146402767Y-88327914D01*
X146083765Y-88008355D01*
X145666756Y-87835197D01*
X145215225Y-87834803D01*
X144797914Y-88007233D01*
X144478355Y-88326235D01*
X144305197Y-88743244D01*
X144304803Y-89194775D01*
X144477233Y-89612086D01*
X144584867Y-89719908D01*
X144478355Y-89826235D01*
X144305197Y-90243244D01*
X144304803Y-90694775D01*
X144477233Y-91112086D01*
X144584867Y-91219908D01*
X144478355Y-91326235D01*
X144305197Y-91743244D01*
X144304803Y-92194775D01*
X144477233Y-92612086D01*
X144584867Y-92719908D01*
X144478355Y-92826235D01*
X144305197Y-93243244D01*
X144304803Y-93694775D01*
X144477233Y-94112086D01*
X144584867Y-94219908D01*
X144478355Y-94326235D01*
X144305197Y-94743244D01*
X144304803Y-95194775D01*
X144337474Y-95273844D01*
X144074943Y-95536375D01*
X144075197Y-95245225D01*
X143902767Y-94827914D01*
X143795133Y-94720092D01*
X143901645Y-94613765D01*
X144074803Y-94196756D01*
X144075197Y-93745225D01*
X143902767Y-93327914D01*
X143795133Y-93220092D01*
X143901645Y-93113765D01*
X144074803Y-92696756D01*
X144075197Y-92245225D01*
X143902767Y-91827914D01*
X143795133Y-91720092D01*
X143901645Y-91613765D01*
X144074803Y-91196756D01*
X144075197Y-90745225D01*
X143902767Y-90327914D01*
X143795133Y-90220092D01*
X143901645Y-90113765D01*
X144074803Y-89696756D01*
X144075197Y-89245225D01*
X143902767Y-88827914D01*
X143626043Y-88550707D01*
X144176086Y-88323433D01*
X144791273Y-87709319D01*
X145124620Y-86906530D01*
X145125379Y-86037283D01*
X144793433Y-85233914D01*
X144179319Y-84618727D01*
X143425779Y-84305830D01*
X152009960Y-84305830D01*
X152009960Y-85690100D01*
X152054238Y-85925417D01*
X152193310Y-86141541D01*
X152405510Y-86286531D01*
X152657400Y-86337540D01*
X154384600Y-86337540D01*
X154619917Y-86293262D01*
X154836041Y-86154190D01*
X154981031Y-85941990D01*
X154989908Y-85898155D01*
X155458152Y-86211026D01*
X156031641Y-86325100D01*
X156090359Y-86325100D01*
X156663848Y-86211026D01*
X157150029Y-85886170D01*
X157330992Y-85615339D01*
X157712510Y-86033321D01*
X158241973Y-86281468D01*
X158474000Y-86160969D01*
X158474000Y-84953500D01*
X158454000Y-84953500D01*
X158454000Y-84699500D01*
X158474000Y-84699500D01*
X158474000Y-84679500D01*
X158728000Y-84679500D01*
X158728000Y-84699500D01*
X158748000Y-84699500D01*
X158748000Y-84953500D01*
X158728000Y-84953500D01*
X158728000Y-86160969D01*
X158960027Y-86281468D01*
X159489490Y-86033321D01*
X159871008Y-85615339D01*
X160051971Y-85886170D01*
X160538152Y-86211026D01*
X161111641Y-86325100D01*
X161170359Y-86325100D01*
X161743848Y-86211026D01*
X162230029Y-85886170D01*
X162411000Y-85615328D01*
X162591971Y-85886170D01*
X163078152Y-86211026D01*
X163651641Y-86325100D01*
X163710359Y-86325100D01*
X164283848Y-86211026D01*
X164770029Y-85886170D01*
X164951000Y-85615328D01*
X165131971Y-85886170D01*
X165618152Y-86211026D01*
X166191641Y-86325100D01*
X166250359Y-86325100D01*
X166331434Y-86308973D01*
X167814032Y-86308973D01*
X167934531Y-86541000D01*
X169142000Y-86541000D01*
X169142000Y-85334183D01*
X168909974Y-85213042D01*
X168494053Y-85385312D01*
X168062179Y-85779510D01*
X167814032Y-86308973D01*
X166331434Y-86308973D01*
X166823848Y-86211026D01*
X167310029Y-85886170D01*
X167634885Y-85399989D01*
X167748959Y-84826500D01*
X167634885Y-84253011D01*
X167310029Y-83766830D01*
X166823848Y-83441974D01*
X166250359Y-83327900D01*
X166191641Y-83327900D01*
X165618152Y-83441974D01*
X165131971Y-83766830D01*
X164951000Y-84037672D01*
X164770029Y-83766830D01*
X164283848Y-83441974D01*
X163710359Y-83327900D01*
X163651641Y-83327900D01*
X163078152Y-83441974D01*
X162591971Y-83766830D01*
X162411000Y-84037672D01*
X162341352Y-83933436D01*
X163265080Y-83009708D01*
X163651641Y-83086600D01*
X163710359Y-83086600D01*
X164283848Y-82972526D01*
X164770029Y-82647670D01*
X164950992Y-82376839D01*
X165332510Y-82794821D01*
X165861973Y-83042968D01*
X166094000Y-82922469D01*
X166094000Y-81715000D01*
X166348000Y-81715000D01*
X166348000Y-82922469D01*
X166580027Y-83042968D01*
X167109490Y-82794821D01*
X167503688Y-82362947D01*
X167675958Y-81947026D01*
X167554817Y-81715000D01*
X166348000Y-81715000D01*
X166094000Y-81715000D01*
X166074000Y-81715000D01*
X166074000Y-81461000D01*
X166094000Y-81461000D01*
X166094000Y-81441000D01*
X166348000Y-81441000D01*
X166348000Y-81461000D01*
X167554817Y-81461000D01*
X167675958Y-81228974D01*
X167503688Y-80813053D01*
X167109490Y-80381179D01*
X166986772Y-80323664D01*
X167310029Y-80107670D01*
X167634885Y-79621489D01*
X167748959Y-79048000D01*
X167634885Y-78474511D01*
X167310029Y-77988330D01*
X166823848Y-77663474D01*
X166250359Y-77549400D01*
X166191641Y-77549400D01*
X165618152Y-77663474D01*
X165131971Y-77988330D01*
X164951000Y-78259172D01*
X164770029Y-77988330D01*
X164283848Y-77663474D01*
X163710359Y-77549400D01*
X163651641Y-77549400D01*
X163078152Y-77663474D01*
X162591971Y-77988330D01*
X162411000Y-78259172D01*
X162230029Y-77988330D01*
X161743848Y-77663474D01*
X161170359Y-77549400D01*
X161111641Y-77549400D01*
X160538152Y-77663474D01*
X160051971Y-77988330D01*
X159871000Y-78259172D01*
X159690029Y-77988330D01*
X159203848Y-77663474D01*
X158630359Y-77549400D01*
X158571641Y-77549400D01*
X157998152Y-77663474D01*
X157511971Y-77988330D01*
X157331000Y-78259172D01*
X157150029Y-77988330D01*
X156663848Y-77663474D01*
X156090359Y-77549400D01*
X156031641Y-77549400D01*
X155458152Y-77663474D01*
X154971971Y-77988330D01*
X154791000Y-78259172D01*
X154610029Y-77988330D01*
X154123848Y-77663474D01*
X153550359Y-77549400D01*
X153491641Y-77549400D01*
X152918152Y-77663474D01*
X152431971Y-77988330D01*
X152251000Y-78259172D01*
X152070029Y-77988330D01*
X151583848Y-77663474D01*
X151010359Y-77549400D01*
X150951641Y-77549400D01*
X150378152Y-77663474D01*
X149891971Y-77988330D01*
X149711000Y-78259172D01*
X149530029Y-77988330D01*
X149043848Y-77663474D01*
X148470359Y-77549400D01*
X148411641Y-77549400D01*
X147838152Y-77663474D01*
X147351971Y-77988330D01*
X147171000Y-78259172D01*
X146990029Y-77988330D01*
X146503848Y-77663474D01*
X145930359Y-77549400D01*
X145871641Y-77549400D01*
X145298152Y-77663474D01*
X144811971Y-77988330D01*
X144631000Y-78259172D01*
X144450029Y-77988330D01*
X143963848Y-77663474D01*
X143390359Y-77549400D01*
X143331641Y-77549400D01*
X142758152Y-77663474D01*
X142271971Y-77988330D01*
X141947115Y-78474511D01*
X141833041Y-79048000D01*
X141947115Y-79621489D01*
X142271971Y-80107670D01*
X142293023Y-80121737D01*
X142137702Y-80186073D01*
X141959073Y-80364701D01*
X141862400Y-80598090D01*
X141862400Y-81302250D01*
X142021150Y-81461000D01*
X143234000Y-81461000D01*
X143234000Y-81441000D01*
X143488000Y-81441000D01*
X143488000Y-81461000D01*
X143508000Y-81461000D01*
X143508000Y-81715000D01*
X143488000Y-81715000D01*
X143488000Y-81735000D01*
X143234000Y-81735000D01*
X143234000Y-81715000D01*
X142021150Y-81715000D01*
X141862400Y-81873750D01*
X141862400Y-81969001D01*
X138308129Y-81969001D01*
X138081119Y-82014156D01*
X138035964Y-82023138D01*
X137805235Y-82177307D01*
X130824472Y-89158070D01*
X130800223Y-89129354D01*
X130747702Y-89087469D01*
X130676703Y-89050790D01*
X130656441Y-89035541D01*
X130655295Y-89034329D01*
X130654149Y-89033816D01*
X130612855Y-89002739D01*
X130552329Y-88973591D01*
X130502280Y-88960680D01*
X130501162Y-88960103D01*
X130499497Y-88959963D01*
X130474946Y-88953629D01*
X130451808Y-88943276D01*
X130450419Y-88942348D01*
X130449185Y-88942103D01*
X130402000Y-88920989D01*
X130336506Y-88906041D01*
X130284847Y-88904592D01*
X130283629Y-88904278D01*
X130281975Y-88904512D01*
X130256629Y-88903801D01*
X130231775Y-88898857D01*
X130230214Y-88898261D01*
X130228957Y-88898296D01*
X130178255Y-88888211D01*
X130111076Y-88888211D01*
X130060374Y-88898296D01*
X130059119Y-88898261D01*
X130057560Y-88898856D01*
X130032706Y-88903800D01*
X130007342Y-88904511D01*
X130005697Y-88904279D01*
X130004486Y-88904591D01*
X129952827Y-88906040D01*
X129887332Y-88920988D01*
X129840143Y-88942103D01*
X129838912Y-88942348D01*
X129837526Y-88943274D01*
X129814379Y-88953632D01*
X129789845Y-88959960D01*
X129788176Y-88960101D01*
X129787055Y-88960680D01*
X129736997Y-88973593D01*
X129676472Y-89002741D01*
X129635185Y-89033814D01*
X129634037Y-89034327D01*
X129632889Y-89035541D01*
X129612626Y-89050791D01*
X129590112Y-89062422D01*
X129588520Y-89062929D01*
X129587559Y-89063741D01*
X129541635Y-89087465D01*
X129489112Y-89129350D01*
X129455758Y-89168848D01*
X129454751Y-89169606D01*
X129453900Y-89171048D01*
X129437557Y-89190403D01*
X129418171Y-89206772D01*
X129416735Y-89207619D01*
X129415980Y-89208622D01*
X129376500Y-89241959D01*
X129334614Y-89294481D01*
X129310889Y-89340405D01*
X129310077Y-89341366D01*
X129309570Y-89342958D01*
X129297933Y-89365483D01*
X129282687Y-89385741D01*
X129281476Y-89386886D01*
X129280963Y-89388032D01*
X129249874Y-89429343D01*
X129220728Y-89489869D01*
X129207821Y-89539906D01*
X129207246Y-89541020D01*
X129207106Y-89542680D01*
X129200771Y-89567240D01*
X129190415Y-89590383D01*
X129189488Y-89591770D01*
X129189243Y-89593002D01*
X129168132Y-89640179D01*
X129153183Y-89705673D01*
X129151848Y-89753235D01*
X129104300Y-89754568D01*
X129038805Y-89769516D01*
X128991616Y-89790631D01*
X128990385Y-89790876D01*
X128988999Y-89791802D01*
X128965852Y-89802160D01*
X128941318Y-89808488D01*
X128939649Y-89808629D01*
X128938528Y-89809208D01*
X128888470Y-89822121D01*
X128827945Y-89851269D01*
X128786658Y-89882342D01*
X128785510Y-89882855D01*
X128784362Y-89884069D01*
X128764099Y-89899319D01*
X128741585Y-89910950D01*
X128739993Y-89911457D01*
X128739032Y-89912269D01*
X128693108Y-89935993D01*
X128640585Y-89977878D01*
X128607231Y-90017376D01*
X128606224Y-90018134D01*
X128605373Y-90019576D01*
X128589030Y-90038931D01*
X128569644Y-90055300D01*
X128568208Y-90056147D01*
X128567453Y-90057150D01*
X128527973Y-90090487D01*
X128486087Y-90143009D01*
X128462362Y-90188933D01*
X128461550Y-90189894D01*
X128461043Y-90191486D01*
X128449406Y-90214011D01*
X128434160Y-90234269D01*
X128432949Y-90235414D01*
X128432436Y-90236560D01*
X128401347Y-90277871D01*
X128372201Y-90338397D01*
X128359294Y-90388434D01*
X128358719Y-90389548D01*
X128358579Y-90391208D01*
X128352244Y-90415768D01*
X128341888Y-90438911D01*
X128340961Y-90440298D01*
X128340716Y-90441530D01*
X128319605Y-90488707D01*
X128304656Y-90554201D01*
X128303321Y-90601763D01*
X128255772Y-90603096D01*
X128190277Y-90618044D01*
X128143088Y-90639159D01*
X128141857Y-90639404D01*
X128140471Y-90640330D01*
X128117324Y-90650688D01*
X128092790Y-90657016D01*
X128091121Y-90657157D01*
X128090000Y-90657736D01*
X128039942Y-90670649D01*
X127979417Y-90699797D01*
X127938130Y-90730870D01*
X127936982Y-90731383D01*
X127935834Y-90732597D01*
X127915571Y-90747847D01*
X127893057Y-90759478D01*
X127891465Y-90759985D01*
X127890504Y-90760797D01*
X127844580Y-90784521D01*
X127792057Y-90826406D01*
X127758703Y-90865904D01*
X127757696Y-90866662D01*
X127756845Y-90868104D01*
X127740502Y-90887459D01*
X127721116Y-90903828D01*
X127719680Y-90904675D01*
X127718925Y-90905678D01*
X127679445Y-90939015D01*
X127637559Y-90991537D01*
X127613834Y-91037461D01*
X127613022Y-91038422D01*
X127612515Y-91040014D01*
X127600878Y-91062539D01*
X127585632Y-91082797D01*
X127584421Y-91083942D01*
X127583908Y-91085088D01*
X127552819Y-91126399D01*
X127523673Y-91186925D01*
X127510766Y-91236962D01*
X127510191Y-91238076D01*
X127510051Y-91239736D01*
X127503716Y-91264296D01*
X127493360Y-91287439D01*
X127492433Y-91288826D01*
X127492188Y-91290058D01*
X127471077Y-91337235D01*
X127456128Y-91402729D01*
X127454793Y-91450291D01*
X127453349Y-91450331D01*
X127402767Y-91327914D01*
X127295133Y-91220092D01*
X127401645Y-91113765D01*
X127574803Y-90696756D01*
X127575197Y-90245225D01*
X127402767Y-89827914D01*
X127295133Y-89720092D01*
X127401645Y-89613765D01*
X127574803Y-89196756D01*
X127575197Y-88745225D01*
X127402767Y-88327914D01*
X127083765Y-88008355D01*
X126666756Y-87835197D01*
X126215225Y-87834803D01*
X125797914Y-88007233D01*
X125478355Y-88326235D01*
X125305197Y-88743244D01*
X125304803Y-89194775D01*
X125477233Y-89612086D01*
X125584867Y-89719908D01*
X125478355Y-89826235D01*
X125305197Y-90243244D01*
X125304803Y-90694775D01*
X125477233Y-91112086D01*
X125584867Y-91219908D01*
X125478355Y-91326235D01*
X125305197Y-91743244D01*
X125304803Y-92194775D01*
X125477233Y-92612086D01*
X125584867Y-92719908D01*
X125478355Y-92826235D01*
X125305197Y-93243244D01*
X125304803Y-93694775D01*
X125400209Y-93925673D01*
X125036228Y-94289654D01*
X125074803Y-94196756D01*
X125075197Y-93745225D01*
X124902767Y-93327914D01*
X124795133Y-93220092D01*
X124901645Y-93113765D01*
X125074803Y-92696756D01*
X125075197Y-92245225D01*
X124902767Y-91827914D01*
X124795133Y-91720092D01*
X124901645Y-91613765D01*
X125074803Y-91196756D01*
X125075197Y-90745225D01*
X124902767Y-90327914D01*
X124795133Y-90220092D01*
X124901645Y-90113765D01*
X125074803Y-89696756D01*
X125075197Y-89245225D01*
X124902767Y-88827914D01*
X124583765Y-88508355D01*
X124166756Y-88335197D01*
X123715225Y-88334803D01*
X123297914Y-88507233D01*
X122978355Y-88826235D01*
X122805197Y-89243244D01*
X122804803Y-89694775D01*
X122977233Y-90112086D01*
X123084867Y-90219908D01*
X122978355Y-90326235D01*
X122805197Y-90743244D01*
X122804803Y-91194775D01*
X122977233Y-91612086D01*
X123084867Y-91719908D01*
X122978355Y-91826235D01*
X122805197Y-92243244D01*
X122804803Y-92694775D01*
X122977233Y-93112086D01*
X123084867Y-93219908D01*
X122978355Y-93326235D01*
X122805197Y-93743244D01*
X122804803Y-94194775D01*
X122977233Y-94612086D01*
X123084867Y-94719908D01*
X122978355Y-94826235D01*
X122805197Y-95243244D01*
X122804803Y-95694775D01*
X122977233Y-96112086D01*
X123084867Y-96219908D01*
X122978355Y-96326235D01*
X122805197Y-96743244D01*
X122804984Y-96987401D01*
X122670295Y-96987401D01*
X122650000Y-96967106D01*
X122419271Y-96812937D01*
X122380023Y-96805130D01*
X122295133Y-96720092D01*
X122401645Y-96613765D01*
X122574803Y-96196756D01*
X122575197Y-95745225D01*
X122402767Y-95327914D01*
X122309038Y-95234022D01*
X122346334Y-95196726D01*
X122230107Y-95080499D01*
X122445217Y-95043352D01*
X122588112Y-94615028D01*
X122556217Y-94164625D01*
X122445217Y-93896648D01*
X122230107Y-93859501D01*
X122346334Y-93743274D01*
X122309154Y-93706094D01*
X122401645Y-93613765D01*
X122574803Y-93196756D01*
X122575197Y-92745225D01*
X122402767Y-92327914D01*
X122295133Y-92220092D01*
X122401645Y-92113765D01*
X122574803Y-91696756D01*
X122575197Y-91245225D01*
X122402767Y-90827914D01*
X122295133Y-90720092D01*
X122401645Y-90613765D01*
X122574803Y-90196756D01*
X122575197Y-89745225D01*
X122402767Y-89327914D01*
X122083765Y-89008355D01*
X121666756Y-88835197D01*
X121215225Y-88834803D01*
X120797914Y-89007233D01*
X120478355Y-89326235D01*
X120305197Y-89743244D01*
X120304803Y-90194775D01*
X120477233Y-90612086D01*
X120584867Y-90719908D01*
X120478355Y-90826235D01*
X120305197Y-91243244D01*
X120304803Y-91694775D01*
X120477233Y-92112086D01*
X120584867Y-92219908D01*
X120478355Y-92326235D01*
X120305197Y-92743244D01*
X120304803Y-93194775D01*
X120477233Y-93612086D01*
X120570962Y-93705978D01*
X120533666Y-93743274D01*
X120649893Y-93859501D01*
X120434783Y-93896648D01*
X120291888Y-94324972D01*
X116710000Y-94324972D01*
X116710000Y-77069930D01*
X116744926Y-76894345D01*
X116804774Y-76804775D01*
X116894345Y-76744926D01*
X117069930Y-76710000D01*
X174930070Y-76710000D01*
X175105655Y-76744926D01*
X175105655Y-76744926D01*
G37*
X175105655Y-76744926D02*
X175195225Y-76804774D01*
X175255074Y-76894345D01*
X175290000Y-77069930D01*
X175290000Y-111930070D01*
X175255074Y-112105655D01*
X175195225Y-112195226D01*
X175105655Y-112255074D01*
X174930070Y-112290000D01*
X117069930Y-112290000D01*
X116894345Y-112255074D01*
X116804774Y-112195225D01*
X116744926Y-112105655D01*
X116710000Y-111930070D01*
X116710000Y-94324972D01*
X120291888Y-94324972D01*
X120323783Y-94775375D01*
X120434783Y-95043352D01*
X120649893Y-95080499D01*
X120533666Y-95196726D01*
X120570846Y-95233906D01*
X120478355Y-95326235D01*
X120305197Y-95743244D01*
X120304803Y-96194775D01*
X120477233Y-96612086D01*
X120584867Y-96719908D01*
X120478355Y-96826235D01*
X120305197Y-97243244D01*
X120304803Y-97694775D01*
X120477233Y-98112086D01*
X120584867Y-98219908D01*
X120478355Y-98326235D01*
X120305197Y-98743244D01*
X120304803Y-99194775D01*
X120477233Y-99612086D01*
X120584867Y-99719908D01*
X120478355Y-99826235D01*
X120305197Y-100243244D01*
X120304803Y-100694775D01*
X120477233Y-101112086D01*
X120796235Y-101431645D01*
X121213244Y-101604803D01*
X121664775Y-101605197D01*
X122082086Y-101432767D01*
X122401645Y-101113765D01*
X122574803Y-100696756D01*
X122575197Y-100245225D01*
X122402767Y-99827914D01*
X122295133Y-99720092D01*
X122401645Y-99613765D01*
X122574803Y-99196756D01*
X122575197Y-98745225D01*
X122436602Y-98409801D01*
X122805052Y-98409801D01*
X122804803Y-98694775D01*
X122977233Y-99112086D01*
X123084867Y-99219908D01*
X122978355Y-99326235D01*
X122805197Y-99743244D01*
X122804803Y-100194775D01*
X122977233Y-100612086D01*
X123296235Y-100931645D01*
X123473408Y-101005214D01*
X123203914Y-101116567D01*
X122588727Y-101730681D01*
X122255380Y-102533470D01*
X122254621Y-103402717D01*
X122586567Y-104206086D01*
X123200681Y-104821273D01*
X124003470Y-105154620D01*
X124872717Y-105155379D01*
X125676086Y-104823433D01*
X126291273Y-104209319D01*
X126624620Y-103406530D01*
X126625379Y-102537283D01*
X126293433Y-101733914D01*
X125679319Y-101118727D01*
X124876530Y-100785380D01*
X124729859Y-100785252D01*
X124901645Y-100613765D01*
X125074803Y-100196756D01*
X125075197Y-99745225D01*
X124936602Y-99409801D01*
X125305052Y-99409801D01*
X125304803Y-99694775D01*
X125477233Y-100112086D01*
X125796235Y-100431645D01*
X126213244Y-100604803D01*
X126664775Y-100605197D01*
X127082086Y-100432767D01*
X127401645Y-100113765D01*
X127574803Y-99696756D01*
X127575197Y-99245225D01*
X127479791Y-99014327D01*
X136751550Y-89742568D01*
X136772451Y-89767320D01*
X136824974Y-89809205D01*
X136895965Y-89845879D01*
X136916220Y-89861123D01*
X136917368Y-89862337D01*
X136918516Y-89862851D01*
X136959811Y-89893929D01*
X137020336Y-89923077D01*
X137070394Y-89935990D01*
X137071515Y-89936569D01*
X137073184Y-89936710D01*
X137097716Y-89943038D01*
X137120864Y-89953396D01*
X137122251Y-89954323D01*
X137123483Y-89954568D01*
X137170661Y-89975679D01*
X137236156Y-89990628D01*
X137287821Y-89992078D01*
X137289036Y-89992391D01*
X137290686Y-89992158D01*
X137316035Y-89992869D01*
X137340909Y-89997817D01*
X137342468Y-89998412D01*
X137343723Y-89998377D01*
X137394415Y-90008460D01*
X137461594Y-90008460D01*
X137512290Y-89998376D01*
X137513543Y-89998411D01*
X137515098Y-89997817D01*
X137539972Y-89992870D01*
X137565314Y-89992159D01*
X137566968Y-89992392D01*
X137568185Y-89992078D01*
X137619855Y-89990628D01*
X137685349Y-89975679D01*
X137732526Y-89954568D01*
X137733758Y-89954323D01*
X137735145Y-89953396D01*
X137758290Y-89943039D01*
X137782836Y-89936707D01*
X137784501Y-89936567D01*
X137785619Y-89935990D01*
X137835668Y-89923079D01*
X137896194Y-89893931D01*
X137937496Y-89862848D01*
X137938642Y-89862335D01*
X137939788Y-89861123D01*
X137960042Y-89845880D01*
X137982572Y-89834241D01*
X137984162Y-89833734D01*
X137985122Y-89832923D01*
X138031041Y-89809201D01*
X138083562Y-89767316D01*
X138116910Y-89727824D01*
X138117916Y-89727067D01*
X138118766Y-89725626D01*
X138135120Y-89706259D01*
X138154496Y-89689897D01*
X138155932Y-89689050D01*
X138156687Y-89688047D01*
X138196178Y-89654699D01*
X138238063Y-89602176D01*
X138261784Y-89556258D01*
X138262595Y-89555298D01*
X138263102Y-89553708D01*
X138274742Y-89531176D01*
X138289977Y-89510932D01*
X138291192Y-89509783D01*
X138291706Y-89508634D01*
X138322793Y-89467326D01*
X138351940Y-89406801D01*
X138364849Y-89356753D01*
X138365427Y-89355635D01*
X138365567Y-89353969D01*
X138371898Y-89329428D01*
X138382253Y-89306286D01*
X138383180Y-89304899D01*
X138383425Y-89303667D01*
X138404536Y-89256490D01*
X138419485Y-89190997D01*
X138420935Y-89139316D01*
X138421249Y-89138100D01*
X138421016Y-89136448D01*
X138421727Y-89111112D01*
X138426674Y-89086239D01*
X138427269Y-89084681D01*
X138427234Y-89083426D01*
X138437317Y-89032735D01*
X138437317Y-88965556D01*
X138427234Y-88914865D01*
X138427269Y-88913610D01*
X138426674Y-88912052D01*
X138421727Y-88887179D01*
X138421016Y-88861843D01*
X138421249Y-88860191D01*
X138420935Y-88858975D01*
X138419485Y-88807294D01*
X138404536Y-88741801D01*
X138383425Y-88694624D01*
X138383180Y-88693392D01*
X138382253Y-88692005D01*
X138371898Y-88668863D01*
X138365567Y-88644322D01*
X138365427Y-88642656D01*
X138364849Y-88641538D01*
X138351940Y-88591490D01*
X138322793Y-88530965D01*
X138291706Y-88489657D01*
X138291192Y-88488508D01*
X138289977Y-88487359D01*
X138274742Y-88467115D01*
X138238063Y-88396115D01*
X138196178Y-88343592D01*
X138165407Y-88317608D01*
X138154667Y-88301533D01*
X138198027Y-88279133D01*
X138250548Y-88237249D01*
X138276531Y-88206479D01*
X138310019Y-88184103D01*
X138725730Y-87768389D01*
X138725732Y-87768386D01*
X140964666Y-85529452D01*
X140755380Y-86033470D01*
X140754621Y-86902717D01*
X141086567Y-87706086D01*
X141700681Y-88321273D01*
X142254028Y-88551043D01*
X141978355Y-88826235D01*
X141805197Y-89243244D01*
X141804803Y-89694775D01*
X141977233Y-90112086D01*
X142084867Y-90219908D01*
X141978355Y-90326235D01*
X141805197Y-90743244D01*
X141804803Y-91194775D01*
X141977233Y-91612086D01*
X142084867Y-91719908D01*
X141978355Y-91826235D01*
X141805197Y-92243244D01*
X141804803Y-92694775D01*
X141977233Y-93112086D01*
X142084867Y-93219908D01*
X141978355Y-93326235D01*
X141805197Y-93743244D01*
X141804803Y-94194775D01*
X141977233Y-94612086D01*
X142084867Y-94719908D01*
X141978355Y-94826235D01*
X141805197Y-95243244D01*
X141804803Y-95694775D01*
X141977233Y-96112086D01*
X142084867Y-96219908D01*
X141978355Y-96326235D01*
X141805197Y-96743244D01*
X141804983Y-96988800D01*
X141469244Y-96988800D01*
X141402767Y-96827914D01*
X141295133Y-96720092D01*
X141401645Y-96613765D01*
X141574803Y-96196756D01*
X141575197Y-95745225D01*
X141402767Y-95327914D01*
X141309038Y-95234022D01*
X141346334Y-95196726D01*
X141230107Y-95080499D01*
X141445217Y-95043352D01*
X141588112Y-94615028D01*
X141556217Y-94164625D01*
X141445217Y-93896648D01*
X141230107Y-93859501D01*
X141346334Y-93743274D01*
X141309154Y-93706094D01*
X141401645Y-93613765D01*
X141574803Y-93196756D01*
X141575197Y-92745225D01*
X141402767Y-92327914D01*
X141295133Y-92220092D01*
X141401645Y-92113765D01*
X141574803Y-91696756D01*
X141575197Y-91245225D01*
X141402767Y-90827914D01*
X141295133Y-90720092D01*
X141401645Y-90613765D01*
X141574803Y-90196756D01*
X141575197Y-89745225D01*
X141402767Y-89327914D01*
X141083765Y-89008355D01*
X140666756Y-88835197D01*
X140215225Y-88834803D01*
X139797914Y-89007233D01*
X139478355Y-89326235D01*
X139305197Y-89743244D01*
X139304803Y-90194775D01*
X139477233Y-90612086D01*
X139584867Y-90719908D01*
X139545908Y-90758800D01*
X137530000Y-90758800D01*
X137257836Y-90812937D01*
X137224522Y-90835197D01*
X137027105Y-90967106D01*
X134497106Y-93497106D01*
X134342937Y-93727835D01*
X134301762Y-93934837D01*
X134288800Y-94000000D01*
X134288800Y-96505412D01*
X132952106Y-97842106D01*
X132797937Y-98072835D01*
X132756934Y-98278971D01*
X132743800Y-98345000D01*
X132743800Y-106880377D01*
X132287567Y-107185222D01*
X131929675Y-107720845D01*
X131804000Y-108352655D01*
X131804000Y-108417345D01*
X131929675Y-109049155D01*
X132287567Y-109584778D01*
X132823190Y-109942670D01*
X133455000Y-110068345D01*
X134086810Y-109942670D01*
X134423001Y-109718034D01*
X134440673Y-109760698D01*
X134619301Y-109939327D01*
X134852690Y-110036000D01*
X135709250Y-110036000D01*
X135868000Y-109877250D01*
X135868000Y-108512000D01*
X136122000Y-108512000D01*
X136122000Y-109877250D01*
X136280750Y-110036000D01*
X137137310Y-110036000D01*
X137370699Y-109939327D01*
X137549327Y-109760698D01*
X137646000Y-109527309D01*
X137646000Y-108670750D01*
X137639650Y-108664400D01*
X141849960Y-108664400D01*
X141849960Y-110391600D01*
X141894238Y-110626917D01*
X142033310Y-110843041D01*
X142245510Y-110988031D01*
X142497400Y-111039040D01*
X144224600Y-111039040D01*
X144459917Y-110994762D01*
X144676041Y-110855690D01*
X144821031Y-110643490D01*
X144829908Y-110599655D01*
X145298152Y-110912526D01*
X145871641Y-111026600D01*
X145930359Y-111026600D01*
X146503848Y-110912526D01*
X146990029Y-110587670D01*
X147171000Y-110316828D01*
X147351971Y-110587670D01*
X147838152Y-110912526D01*
X148411641Y-111026600D01*
X148470359Y-111026600D01*
X149043848Y-110912526D01*
X149530029Y-110587670D01*
X149711000Y-110316828D01*
X149891971Y-110587670D01*
X150378152Y-110912526D01*
X150951641Y-111026600D01*
X151010359Y-111026600D01*
X151583848Y-110912526D01*
X152070029Y-110587670D01*
X152251000Y-110316828D01*
X152431971Y-110587670D01*
X152918152Y-110912526D01*
X153491641Y-111026600D01*
X153550359Y-111026600D01*
X154123848Y-110912526D01*
X154610029Y-110587670D01*
X154791000Y-110316828D01*
X154971971Y-110587670D01*
X155458152Y-110912526D01*
X156031641Y-111026600D01*
X156090359Y-111026600D01*
X156663848Y-110912526D01*
X157150029Y-110587670D01*
X157331000Y-110316828D01*
X157511971Y-110587670D01*
X157998152Y-110912526D01*
X158571641Y-111026600D01*
X158630359Y-111026600D01*
X159203848Y-110912526D01*
X159690029Y-110587670D01*
X159871000Y-110316828D01*
X160051971Y-110587670D01*
X160538152Y-110912526D01*
X161111641Y-111026600D01*
X161170359Y-111026600D01*
X161743848Y-110912526D01*
X162230029Y-110587670D01*
X162411000Y-110316828D01*
X162591971Y-110587670D01*
X163078152Y-110912526D01*
X163651641Y-111026600D01*
X163710359Y-111026600D01*
X164283848Y-110912526D01*
X164770029Y-110587670D01*
X164951000Y-110316828D01*
X165131971Y-110587670D01*
X165618152Y-110912526D01*
X166191641Y-111026600D01*
X166250359Y-111026600D01*
X166823848Y-110912526D01*
X167310029Y-110587670D01*
X167634885Y-110101489D01*
X167748959Y-109528000D01*
X167634885Y-108954511D01*
X167310029Y-108468330D01*
X166986772Y-108252336D01*
X167109490Y-108194821D01*
X167503688Y-107762947D01*
X167675958Y-107347026D01*
X167554817Y-107115000D01*
X166348000Y-107115000D01*
X166348000Y-107135000D01*
X166094000Y-107135000D01*
X166094000Y-107115000D01*
X166074000Y-107115000D01*
X166074000Y-106861000D01*
X166094000Y-106861000D01*
X166094000Y-105653531D01*
X166348000Y-105653531D01*
X166348000Y-106861000D01*
X167554817Y-106861000D01*
X167675958Y-106628974D01*
X167503688Y-106213053D01*
X167109490Y-105781179D01*
X166580027Y-105533032D01*
X166348000Y-105653531D01*
X166094000Y-105653531D01*
X165861973Y-105533032D01*
X165332510Y-105781179D01*
X164950992Y-106199161D01*
X164770029Y-105928330D01*
X164283848Y-105603474D01*
X163710359Y-105489400D01*
X163651641Y-105489400D01*
X163078152Y-105603474D01*
X162591971Y-105928330D01*
X162411000Y-106199172D01*
X162230029Y-105928330D01*
X161743848Y-105603474D01*
X161170359Y-105489400D01*
X161111641Y-105489400D01*
X160538152Y-105603474D01*
X160051971Y-105928330D01*
X159871000Y-106199172D01*
X159690029Y-105928330D01*
X159203848Y-105603474D01*
X158630359Y-105489400D01*
X158571641Y-105489400D01*
X157998152Y-105603474D01*
X157511971Y-105928330D01*
X157331000Y-106199172D01*
X157150029Y-105928330D01*
X156663848Y-105603474D01*
X156090359Y-105489400D01*
X156031641Y-105489400D01*
X155458152Y-105603474D01*
X154971971Y-105928330D01*
X154791000Y-106199172D01*
X154610029Y-105928330D01*
X154123848Y-105603474D01*
X153550359Y-105489400D01*
X153491641Y-105489400D01*
X152918152Y-105603474D01*
X152431971Y-105928330D01*
X152251000Y-106199172D01*
X152070029Y-105928330D01*
X151583848Y-105603474D01*
X151010359Y-105489400D01*
X150951641Y-105489400D01*
X150378152Y-105603474D01*
X149891971Y-105928330D01*
X149711000Y-106199172D01*
X149530029Y-105928330D01*
X149043848Y-105603474D01*
X148470359Y-105489400D01*
X148411641Y-105489400D01*
X147838152Y-105603474D01*
X147351971Y-105928330D01*
X147171000Y-106199172D01*
X146990029Y-105928330D01*
X146503848Y-105603474D01*
X145930359Y-105489400D01*
X145871641Y-105489400D01*
X145298152Y-105603474D01*
X144811971Y-105928330D01*
X144631008Y-106199161D01*
X144249490Y-105781179D01*
X143720027Y-105533032D01*
X143488000Y-105653531D01*
X143488000Y-106861000D01*
X143508000Y-106861000D01*
X143508000Y-107115000D01*
X143488000Y-107115000D01*
X143488000Y-107135000D01*
X143234000Y-107135000D01*
X143234000Y-107115000D01*
X142027183Y-107115000D01*
X141906042Y-107347026D01*
X142078312Y-107762947D01*
X142337609Y-108047027D01*
X142262083Y-108061238D01*
X142045959Y-108200310D01*
X141900969Y-108412510D01*
X141849960Y-108664400D01*
X137639650Y-108664400D01*
X137487250Y-108512000D01*
X136122000Y-108512000D01*
X135868000Y-108512000D01*
X135848000Y-108512000D01*
X135848000Y-108258000D01*
X135868000Y-108258000D01*
X135868000Y-106892750D01*
X136122000Y-106892750D01*
X136122000Y-108258000D01*
X137487250Y-108258000D01*
X137646000Y-108099250D01*
X137646000Y-107242691D01*
X137549327Y-107009302D01*
X137370699Y-106830673D01*
X137137310Y-106734000D01*
X136280750Y-106734000D01*
X136122000Y-106892750D01*
X135868000Y-106892750D01*
X135709250Y-106734000D01*
X134852690Y-106734000D01*
X134619301Y-106830673D01*
X134440673Y-107009302D01*
X134423001Y-107051966D01*
X134166200Y-106880377D01*
X134166200Y-106628974D01*
X141906042Y-106628974D01*
X142027183Y-106861000D01*
X143234000Y-106861000D01*
X143234000Y-105653531D01*
X143001973Y-105533032D01*
X142472510Y-105781179D01*
X142078312Y-106213053D01*
X141906042Y-106628974D01*
X134166200Y-106628974D01*
X134166200Y-98639588D01*
X135502894Y-97302894D01*
X135657063Y-97072165D01*
X135711200Y-96800000D01*
X135711200Y-94294588D01*
X137824589Y-92181200D01*
X139546227Y-92181200D01*
X139584867Y-92219908D01*
X139478355Y-92326235D01*
X139305197Y-92743244D01*
X139304803Y-93194775D01*
X139477233Y-93612086D01*
X139570962Y-93705978D01*
X139533666Y-93743274D01*
X139649893Y-93859501D01*
X139434783Y-93896648D01*
X139291888Y-94324972D01*
X139323783Y-94775375D01*
X139434783Y-95043352D01*
X139649893Y-95080499D01*
X139533666Y-95196726D01*
X139570846Y-95233906D01*
X139478355Y-95326235D01*
X139305197Y-95743244D01*
X139304803Y-96194775D01*
X139477233Y-96612086D01*
X139584867Y-96719908D01*
X139478355Y-96826235D01*
X139305197Y-97243244D01*
X139304803Y-97694775D01*
X139477233Y-98112086D01*
X139584867Y-98219908D01*
X139478355Y-98326235D01*
X139305197Y-98743244D01*
X139304803Y-99194775D01*
X139477233Y-99612086D01*
X139584867Y-99719908D01*
X139478355Y-99826235D01*
X139305197Y-100243244D01*
X139304803Y-100694775D01*
X139477233Y-101112086D01*
X139796235Y-101431645D01*
X140213244Y-101604803D01*
X140664775Y-101605197D01*
X141082086Y-101432767D01*
X141401645Y-101113765D01*
X141574803Y-100696756D01*
X141575197Y-100245225D01*
X141402767Y-99827914D01*
X141295133Y-99720092D01*
X141401645Y-99613765D01*
X141574803Y-99196756D01*
X141575197Y-98745225D01*
X141437180Y-98411200D01*
X141805050Y-98411200D01*
X141804803Y-98694775D01*
X141977233Y-99112086D01*
X142084867Y-99219908D01*
X141978355Y-99326235D01*
X141805197Y-99743244D01*
X141804803Y-100194775D01*
X141977233Y-100612086D01*
X142296235Y-100931645D01*
X142713244Y-101104803D01*
X143164775Y-101105197D01*
X143582086Y-100932767D01*
X143901645Y-100613765D01*
X144074803Y-100196756D01*
X144075197Y-99745225D01*
X143902767Y-99327914D01*
X143795133Y-99220092D01*
X143901645Y-99113765D01*
X144074803Y-98696756D01*
X144075083Y-98376374D01*
X144172165Y-98357063D01*
X144328654Y-98252500D01*
X144477233Y-98612086D01*
X144584867Y-98719908D01*
X144478355Y-98826235D01*
X144305197Y-99243244D01*
X144304803Y-99694775D01*
X144477233Y-100112086D01*
X144796235Y-100431645D01*
X145213244Y-100604803D01*
X145664775Y-100605197D01*
X146082086Y-100432767D01*
X146401645Y-100113765D01*
X146574803Y-99696756D01*
X146575197Y-99245225D01*
X146402767Y-98827914D01*
X146295133Y-98720092D01*
X146401645Y-98613765D01*
X146574803Y-98196756D01*
X146575052Y-97911200D01*
X166005412Y-97911200D01*
X166697106Y-98602894D01*
X166927835Y-98757063D01*
X166968502Y-98765152D01*
X167200000Y-98811200D01*
X167875314Y-98811200D01*
X167770400Y-99338641D01*
X167770400Y-99397359D01*
X167884474Y-99970848D01*
X168209330Y-100457029D01*
X168480172Y-100638000D01*
X168209330Y-100818971D01*
X167884474Y-101305152D01*
X167770400Y-101878641D01*
X167770400Y-101937359D01*
X167884474Y-102510848D01*
X168209330Y-102997029D01*
X168695511Y-103321885D01*
X169269000Y-103435959D01*
X169842489Y-103321885D01*
X170328670Y-102997029D01*
X170337805Y-102983358D01*
X170342238Y-103006917D01*
X170481310Y-103223041D01*
X170693510Y-103368031D01*
X170945400Y-103419040D01*
X172672600Y-103419040D01*
X172907917Y-103374762D01*
X173124041Y-103235690D01*
X173269031Y-103023490D01*
X173320040Y-102771600D01*
X173320040Y-101044400D01*
X173275762Y-100809083D01*
X173136690Y-100592959D01*
X172924490Y-100447969D01*
X172880655Y-100439092D01*
X173193526Y-99970848D01*
X173307600Y-99397359D01*
X173307600Y-99338641D01*
X173193526Y-98765152D01*
X172868670Y-98278971D01*
X172597828Y-98098000D01*
X172868670Y-97917029D01*
X173193526Y-97430848D01*
X173307600Y-96857359D01*
X173307600Y-96798641D01*
X173193526Y-96225152D01*
X172868670Y-95738971D01*
X172597828Y-95558000D01*
X172868670Y-95377029D01*
X173193526Y-94890848D01*
X173307600Y-94317359D01*
X173307600Y-94258641D01*
X173193526Y-93685152D01*
X172868670Y-93198971D01*
X172597828Y-93018000D01*
X172868670Y-92837029D01*
X173193526Y-92350848D01*
X173307600Y-91777359D01*
X173307600Y-91718641D01*
X173193526Y-91145152D01*
X172868670Y-90658971D01*
X172597828Y-90478000D01*
X172868670Y-90297029D01*
X173193526Y-89810848D01*
X173307600Y-89237359D01*
X173307600Y-89178641D01*
X173193526Y-88605152D01*
X172868670Y-88118971D01*
X172597828Y-87938000D01*
X172868670Y-87757029D01*
X173193526Y-87270848D01*
X173307600Y-86697359D01*
X173307600Y-86638641D01*
X173193526Y-86065152D01*
X172868670Y-85578971D01*
X172382489Y-85254115D01*
X171809000Y-85140041D01*
X171235511Y-85254115D01*
X170749330Y-85578971D01*
X170533336Y-85902228D01*
X170475821Y-85779510D01*
X170043947Y-85385312D01*
X169628026Y-85213042D01*
X169396000Y-85334183D01*
X169396000Y-86541000D01*
X169416000Y-86541000D01*
X169416000Y-86795000D01*
X169396000Y-86795000D01*
X169396000Y-86815000D01*
X169142000Y-86815000D01*
X169142000Y-86795000D01*
X167934531Y-86795000D01*
X167814032Y-87027027D01*
X168062179Y-87556490D01*
X168480161Y-87938008D01*
X168209330Y-88118971D01*
X167884474Y-88605152D01*
X167770400Y-89178641D01*
X167770400Y-89237359D01*
X167884474Y-89810848D01*
X168209330Y-90297029D01*
X168480172Y-90478000D01*
X168209330Y-90658971D01*
X167884474Y-91145152D01*
X167770400Y-91718641D01*
X167770400Y-91777359D01*
X167884474Y-92350848D01*
X168164627Y-92770126D01*
X165904555Y-95030199D01*
X146574948Y-95030199D01*
X146575197Y-94745225D01*
X146402767Y-94327914D01*
X146295133Y-94220092D01*
X146401645Y-94113765D01*
X146574803Y-93696756D01*
X146575197Y-93245225D01*
X146402767Y-92827914D01*
X146295133Y-92720092D01*
X146401645Y-92613765D01*
X146574803Y-92196756D01*
X146575197Y-91745225D01*
X146402767Y-91327914D01*
X146295133Y-91220092D01*
X146401645Y-91113765D01*
X146574803Y-90696756D01*
X146575197Y-90245225D01*
X146402767Y-89827914D01*
X146295133Y-89720092D01*
X146401645Y-89613765D01*
X146574803Y-89196756D01*
X146575197Y-88745225D01*
X146402767Y-88327914D01*
X146083765Y-88008355D01*
X145666756Y-87835197D01*
X145215225Y-87834803D01*
X144797914Y-88007233D01*
X144478355Y-88326235D01*
X144305197Y-88743244D01*
X144304803Y-89194775D01*
X144477233Y-89612086D01*
X144584867Y-89719908D01*
X144478355Y-89826235D01*
X144305197Y-90243244D01*
X144304803Y-90694775D01*
X144477233Y-91112086D01*
X144584867Y-91219908D01*
X144478355Y-91326235D01*
X144305197Y-91743244D01*
X144304803Y-92194775D01*
X144477233Y-92612086D01*
X144584867Y-92719908D01*
X144478355Y-92826235D01*
X144305197Y-93243244D01*
X144304803Y-93694775D01*
X144477233Y-94112086D01*
X144584867Y-94219908D01*
X144478355Y-94326235D01*
X144305197Y-94743244D01*
X144304803Y-95194775D01*
X144337474Y-95273844D01*
X144074943Y-95536375D01*
X144075197Y-95245225D01*
X143902767Y-94827914D01*
X143795133Y-94720092D01*
X143901645Y-94613765D01*
X144074803Y-94196756D01*
X144075197Y-93745225D01*
X143902767Y-93327914D01*
X143795133Y-93220092D01*
X143901645Y-93113765D01*
X144074803Y-92696756D01*
X144075197Y-92245225D01*
X143902767Y-91827914D01*
X143795133Y-91720092D01*
X143901645Y-91613765D01*
X144074803Y-91196756D01*
X144075197Y-90745225D01*
X143902767Y-90327914D01*
X143795133Y-90220092D01*
X143901645Y-90113765D01*
X144074803Y-89696756D01*
X144075197Y-89245225D01*
X143902767Y-88827914D01*
X143626043Y-88550707D01*
X144176086Y-88323433D01*
X144791273Y-87709319D01*
X145124620Y-86906530D01*
X145125379Y-86037283D01*
X144793433Y-85233914D01*
X144179319Y-84618727D01*
X143425779Y-84305830D01*
X152009960Y-84305830D01*
X152009960Y-85690100D01*
X152054238Y-85925417D01*
X152193310Y-86141541D01*
X152405510Y-86286531D01*
X152657400Y-86337540D01*
X154384600Y-86337540D01*
X154619917Y-86293262D01*
X154836041Y-86154190D01*
X154981031Y-85941990D01*
X154989908Y-85898155D01*
X155458152Y-86211026D01*
X156031641Y-86325100D01*
X156090359Y-86325100D01*
X156663848Y-86211026D01*
X157150029Y-85886170D01*
X157330992Y-85615339D01*
X157712510Y-86033321D01*
X158241973Y-86281468D01*
X158474000Y-86160969D01*
X158474000Y-84953500D01*
X158454000Y-84953500D01*
X158454000Y-84699500D01*
X158474000Y-84699500D01*
X158474000Y-84679500D01*
X158728000Y-84679500D01*
X158728000Y-84699500D01*
X158748000Y-84699500D01*
X158748000Y-84953500D01*
X158728000Y-84953500D01*
X158728000Y-86160969D01*
X158960027Y-86281468D01*
X159489490Y-86033321D01*
X159871008Y-85615339D01*
X160051971Y-85886170D01*
X160538152Y-86211026D01*
X161111641Y-86325100D01*
X161170359Y-86325100D01*
X161743848Y-86211026D01*
X162230029Y-85886170D01*
X162411000Y-85615328D01*
X162591971Y-85886170D01*
X163078152Y-86211026D01*
X163651641Y-86325100D01*
X163710359Y-86325100D01*
X164283848Y-86211026D01*
X164770029Y-85886170D01*
X164951000Y-85615328D01*
X165131971Y-85886170D01*
X165618152Y-86211026D01*
X166191641Y-86325100D01*
X166250359Y-86325100D01*
X166331434Y-86308973D01*
X167814032Y-86308973D01*
X167934531Y-86541000D01*
X169142000Y-86541000D01*
X169142000Y-85334183D01*
X168909974Y-85213042D01*
X168494053Y-85385312D01*
X168062179Y-85779510D01*
X167814032Y-86308973D01*
X166331434Y-86308973D01*
X166823848Y-86211026D01*
X167310029Y-85886170D01*
X167634885Y-85399989D01*
X167748959Y-84826500D01*
X167634885Y-84253011D01*
X167310029Y-83766830D01*
X166823848Y-83441974D01*
X166250359Y-83327900D01*
X166191641Y-83327900D01*
X165618152Y-83441974D01*
X165131971Y-83766830D01*
X164951000Y-84037672D01*
X164770029Y-83766830D01*
X164283848Y-83441974D01*
X163710359Y-83327900D01*
X163651641Y-83327900D01*
X163078152Y-83441974D01*
X162591971Y-83766830D01*
X162411000Y-84037672D01*
X162341352Y-83933436D01*
X163265080Y-83009708D01*
X163651641Y-83086600D01*
X163710359Y-83086600D01*
X164283848Y-82972526D01*
X164770029Y-82647670D01*
X164950992Y-82376839D01*
X165332510Y-82794821D01*
X165861973Y-83042968D01*
X166094000Y-82922469D01*
X166094000Y-81715000D01*
X166348000Y-81715000D01*
X166348000Y-82922469D01*
X166580027Y-83042968D01*
X167109490Y-82794821D01*
X167503688Y-82362947D01*
X167675958Y-81947026D01*
X167554817Y-81715000D01*
X166348000Y-81715000D01*
X166094000Y-81715000D01*
X166074000Y-81715000D01*
X166074000Y-81461000D01*
X166094000Y-81461000D01*
X166094000Y-81441000D01*
X166348000Y-81441000D01*
X166348000Y-81461000D01*
X167554817Y-81461000D01*
X167675958Y-81228974D01*
X167503688Y-80813053D01*
X167109490Y-80381179D01*
X166986772Y-80323664D01*
X167310029Y-80107670D01*
X167634885Y-79621489D01*
X167748959Y-79048000D01*
X167634885Y-78474511D01*
X167310029Y-77988330D01*
X166823848Y-77663474D01*
X166250359Y-77549400D01*
X166191641Y-77549400D01*
X165618152Y-77663474D01*
X165131971Y-77988330D01*
X164951000Y-78259172D01*
X164770029Y-77988330D01*
X164283848Y-77663474D01*
X163710359Y-77549400D01*
X163651641Y-77549400D01*
X163078152Y-77663474D01*
X162591971Y-77988330D01*
X162411000Y-78259172D01*
X162230029Y-77988330D01*
X161743848Y-77663474D01*
X161170359Y-77549400D01*
X161111641Y-77549400D01*
X160538152Y-77663474D01*
X160051971Y-77988330D01*
X159871000Y-78259172D01*
X159690029Y-77988330D01*
X159203848Y-77663474D01*
X158630359Y-77549400D01*
X158571641Y-77549400D01*
X157998152Y-77663474D01*
X157511971Y-77988330D01*
X157331000Y-78259172D01*
X157150029Y-77988330D01*
X156663848Y-77663474D01*
X156090359Y-77549400D01*
X156031641Y-77549400D01*
X155458152Y-77663474D01*
X154971971Y-77988330D01*
X154791000Y-78259172D01*
X154610029Y-77988330D01*
X154123848Y-77663474D01*
X153550359Y-77549400D01*
X153491641Y-77549400D01*
X152918152Y-77663474D01*
X152431971Y-77988330D01*
X152251000Y-78259172D01*
X152070029Y-77988330D01*
X151583848Y-77663474D01*
X151010359Y-77549400D01*
X150951641Y-77549400D01*
X150378152Y-77663474D01*
X149891971Y-77988330D01*
X149711000Y-78259172D01*
X149530029Y-77988330D01*
X149043848Y-77663474D01*
X148470359Y-77549400D01*
X148411641Y-77549400D01*
X147838152Y-77663474D01*
X147351971Y-77988330D01*
X147171000Y-78259172D01*
X146990029Y-77988330D01*
X146503848Y-77663474D01*
X145930359Y-77549400D01*
X145871641Y-77549400D01*
X145298152Y-77663474D01*
X144811971Y-77988330D01*
X144631000Y-78259172D01*
X144450029Y-77988330D01*
X143963848Y-77663474D01*
X143390359Y-77549400D01*
X143331641Y-77549400D01*
X142758152Y-77663474D01*
X142271971Y-77988330D01*
X141947115Y-78474511D01*
X141833041Y-79048000D01*
X141947115Y-79621489D01*
X142271971Y-80107670D01*
X142293023Y-80121737D01*
X142137702Y-80186073D01*
X141959073Y-80364701D01*
X141862400Y-80598090D01*
X141862400Y-81302250D01*
X142021150Y-81461000D01*
X143234000Y-81461000D01*
X143234000Y-81441000D01*
X143488000Y-81441000D01*
X143488000Y-81461000D01*
X143508000Y-81461000D01*
X143508000Y-81715000D01*
X143488000Y-81715000D01*
X143488000Y-81735000D01*
X143234000Y-81735000D01*
X143234000Y-81715000D01*
X142021150Y-81715000D01*
X141862400Y-81873750D01*
X141862400Y-81969001D01*
X138308129Y-81969001D01*
X138081119Y-82014156D01*
X138035964Y-82023138D01*
X137805235Y-82177307D01*
X130824472Y-89158070D01*
X130800223Y-89129354D01*
X130747702Y-89087469D01*
X130676703Y-89050790D01*
X130656441Y-89035541D01*
X130655295Y-89034329D01*
X130654149Y-89033816D01*
X130612855Y-89002739D01*
X130552329Y-88973591D01*
X130502280Y-88960680D01*
X130501162Y-88960103D01*
X130499497Y-88959963D01*
X130474946Y-88953629D01*
X130451808Y-88943276D01*
X130450419Y-88942348D01*
X130449185Y-88942103D01*
X130402000Y-88920989D01*
X130336506Y-88906041D01*
X130284847Y-88904592D01*
X130283629Y-88904278D01*
X130281975Y-88904512D01*
X130256629Y-88903801D01*
X130231775Y-88898857D01*
X130230214Y-88898261D01*
X130228957Y-88898296D01*
X130178255Y-88888211D01*
X130111076Y-88888211D01*
X130060374Y-88898296D01*
X130059119Y-88898261D01*
X130057560Y-88898856D01*
X130032706Y-88903800D01*
X130007342Y-88904511D01*
X130005697Y-88904279D01*
X130004486Y-88904591D01*
X129952827Y-88906040D01*
X129887332Y-88920988D01*
X129840143Y-88942103D01*
X129838912Y-88942348D01*
X129837526Y-88943274D01*
X129814379Y-88953632D01*
X129789845Y-88959960D01*
X129788176Y-88960101D01*
X129787055Y-88960680D01*
X129736997Y-88973593D01*
X129676472Y-89002741D01*
X129635185Y-89033814D01*
X129634037Y-89034327D01*
X129632889Y-89035541D01*
X129612626Y-89050791D01*
X129590112Y-89062422D01*
X129588520Y-89062929D01*
X129587559Y-89063741D01*
X129541635Y-89087465D01*
X129489112Y-89129350D01*
X129455758Y-89168848D01*
X129454751Y-89169606D01*
X129453900Y-89171048D01*
X129437557Y-89190403D01*
X129418171Y-89206772D01*
X129416735Y-89207619D01*
X129415980Y-89208622D01*
X129376500Y-89241959D01*
X129334614Y-89294481D01*
X129310889Y-89340405D01*
X129310077Y-89341366D01*
X129309570Y-89342958D01*
X129297933Y-89365483D01*
X129282687Y-89385741D01*
X129281476Y-89386886D01*
X129280963Y-89388032D01*
X129249874Y-89429343D01*
X129220728Y-89489869D01*
X129207821Y-89539906D01*
X129207246Y-89541020D01*
X129207106Y-89542680D01*
X129200771Y-89567240D01*
X129190415Y-89590383D01*
X129189488Y-89591770D01*
X129189243Y-89593002D01*
X129168132Y-89640179D01*
X129153183Y-89705673D01*
X129151848Y-89753235D01*
X129104300Y-89754568D01*
X129038805Y-89769516D01*
X128991616Y-89790631D01*
X128990385Y-89790876D01*
X128988999Y-89791802D01*
X128965852Y-89802160D01*
X128941318Y-89808488D01*
X128939649Y-89808629D01*
X128938528Y-89809208D01*
X128888470Y-89822121D01*
X128827945Y-89851269D01*
X128786658Y-89882342D01*
X128785510Y-89882855D01*
X128784362Y-89884069D01*
X128764099Y-89899319D01*
X128741585Y-89910950D01*
X128739993Y-89911457D01*
X128739032Y-89912269D01*
X128693108Y-89935993D01*
X128640585Y-89977878D01*
X128607231Y-90017376D01*
X128606224Y-90018134D01*
X128605373Y-90019576D01*
X128589030Y-90038931D01*
X128569644Y-90055300D01*
X128568208Y-90056147D01*
X128567453Y-90057150D01*
X128527973Y-90090487D01*
X128486087Y-90143009D01*
X128462362Y-90188933D01*
X128461550Y-90189894D01*
X128461043Y-90191486D01*
X128449406Y-90214011D01*
X128434160Y-90234269D01*
X128432949Y-90235414D01*
X128432436Y-90236560D01*
X128401347Y-90277871D01*
X128372201Y-90338397D01*
X128359294Y-90388434D01*
X128358719Y-90389548D01*
X128358579Y-90391208D01*
X128352244Y-90415768D01*
X128341888Y-90438911D01*
X128340961Y-90440298D01*
X128340716Y-90441530D01*
X128319605Y-90488707D01*
X128304656Y-90554201D01*
X128303321Y-90601763D01*
X128255772Y-90603096D01*
X128190277Y-90618044D01*
X128143088Y-90639159D01*
X128141857Y-90639404D01*
X128140471Y-90640330D01*
X128117324Y-90650688D01*
X128092790Y-90657016D01*
X128091121Y-90657157D01*
X128090000Y-90657736D01*
X128039942Y-90670649D01*
X127979417Y-90699797D01*
X127938130Y-90730870D01*
X127936982Y-90731383D01*
X127935834Y-90732597D01*
X127915571Y-90747847D01*
X127893057Y-90759478D01*
X127891465Y-90759985D01*
X127890504Y-90760797D01*
X127844580Y-90784521D01*
X127792057Y-90826406D01*
X127758703Y-90865904D01*
X127757696Y-90866662D01*
X127756845Y-90868104D01*
X127740502Y-90887459D01*
X127721116Y-90903828D01*
X127719680Y-90904675D01*
X127718925Y-90905678D01*
X127679445Y-90939015D01*
X127637559Y-90991537D01*
X127613834Y-91037461D01*
X127613022Y-91038422D01*
X127612515Y-91040014D01*
X127600878Y-91062539D01*
X127585632Y-91082797D01*
X127584421Y-91083942D01*
X127583908Y-91085088D01*
X127552819Y-91126399D01*
X127523673Y-91186925D01*
X127510766Y-91236962D01*
X127510191Y-91238076D01*
X127510051Y-91239736D01*
X127503716Y-91264296D01*
X127493360Y-91287439D01*
X127492433Y-91288826D01*
X127492188Y-91290058D01*
X127471077Y-91337235D01*
X127456128Y-91402729D01*
X127454793Y-91450291D01*
X127453349Y-91450331D01*
X127402767Y-91327914D01*
X127295133Y-91220092D01*
X127401645Y-91113765D01*
X127574803Y-90696756D01*
X127575197Y-90245225D01*
X127402767Y-89827914D01*
X127295133Y-89720092D01*
X127401645Y-89613765D01*
X127574803Y-89196756D01*
X127575197Y-88745225D01*
X127402767Y-88327914D01*
X127083765Y-88008355D01*
X126666756Y-87835197D01*
X126215225Y-87834803D01*
X125797914Y-88007233D01*
X125478355Y-88326235D01*
X125305197Y-88743244D01*
X125304803Y-89194775D01*
X125477233Y-89612086D01*
X125584867Y-89719908D01*
X125478355Y-89826235D01*
X125305197Y-90243244D01*
X125304803Y-90694775D01*
X125477233Y-91112086D01*
X125584867Y-91219908D01*
X125478355Y-91326235D01*
X125305197Y-91743244D01*
X125304803Y-92194775D01*
X125477233Y-92612086D01*
X125584867Y-92719908D01*
X125478355Y-92826235D01*
X125305197Y-93243244D01*
X125304803Y-93694775D01*
X125400209Y-93925673D01*
X125036228Y-94289654D01*
X125074803Y-94196756D01*
X125075197Y-93745225D01*
X124902767Y-93327914D01*
X124795133Y-93220092D01*
X124901645Y-93113765D01*
X125074803Y-92696756D01*
X125075197Y-92245225D01*
X124902767Y-91827914D01*
X124795133Y-91720092D01*
X124901645Y-91613765D01*
X125074803Y-91196756D01*
X125075197Y-90745225D01*
X124902767Y-90327914D01*
X124795133Y-90220092D01*
X124901645Y-90113765D01*
X125074803Y-89696756D01*
X125075197Y-89245225D01*
X124902767Y-88827914D01*
X124583765Y-88508355D01*
X124166756Y-88335197D01*
X123715225Y-88334803D01*
X123297914Y-88507233D01*
X122978355Y-88826235D01*
X122805197Y-89243244D01*
X122804803Y-89694775D01*
X122977233Y-90112086D01*
X123084867Y-90219908D01*
X122978355Y-90326235D01*
X122805197Y-90743244D01*
X122804803Y-91194775D01*
X122977233Y-91612086D01*
X123084867Y-91719908D01*
X122978355Y-91826235D01*
X122805197Y-92243244D01*
X122804803Y-92694775D01*
X122977233Y-93112086D01*
X123084867Y-93219908D01*
X122978355Y-93326235D01*
X122805197Y-93743244D01*
X122804803Y-94194775D01*
X122977233Y-94612086D01*
X123084867Y-94719908D01*
X122978355Y-94826235D01*
X122805197Y-95243244D01*
X122804803Y-95694775D01*
X122977233Y-96112086D01*
X123084867Y-96219908D01*
X122978355Y-96326235D01*
X122805197Y-96743244D01*
X122804984Y-96987401D01*
X122670295Y-96987401D01*
X122650000Y-96967106D01*
X122419271Y-96812937D01*
X122380023Y-96805130D01*
X122295133Y-96720092D01*
X122401645Y-96613765D01*
X122574803Y-96196756D01*
X122575197Y-95745225D01*
X122402767Y-95327914D01*
X122309038Y-95234022D01*
X122346334Y-95196726D01*
X122230107Y-95080499D01*
X122445217Y-95043352D01*
X122588112Y-94615028D01*
X122556217Y-94164625D01*
X122445217Y-93896648D01*
X122230107Y-93859501D01*
X122346334Y-93743274D01*
X122309154Y-93706094D01*
X122401645Y-93613765D01*
X122574803Y-93196756D01*
X122575197Y-92745225D01*
X122402767Y-92327914D01*
X122295133Y-92220092D01*
X122401645Y-92113765D01*
X122574803Y-91696756D01*
X122575197Y-91245225D01*
X122402767Y-90827914D01*
X122295133Y-90720092D01*
X122401645Y-90613765D01*
X122574803Y-90196756D01*
X122575197Y-89745225D01*
X122402767Y-89327914D01*
X122083765Y-89008355D01*
X121666756Y-88835197D01*
X121215225Y-88834803D01*
X120797914Y-89007233D01*
X120478355Y-89326235D01*
X120305197Y-89743244D01*
X120304803Y-90194775D01*
X120477233Y-90612086D01*
X120584867Y-90719908D01*
X120478355Y-90826235D01*
X120305197Y-91243244D01*
X120304803Y-91694775D01*
X120477233Y-92112086D01*
X120584867Y-92219908D01*
X120478355Y-92326235D01*
X120305197Y-92743244D01*
X120304803Y-93194775D01*
X120477233Y-93612086D01*
X120570962Y-93705978D01*
X120533666Y-93743274D01*
X120649893Y-93859501D01*
X120434783Y-93896648D01*
X120291888Y-94324972D01*
X116710000Y-94324972D01*
X116710000Y-77069930D01*
X116744926Y-76894345D01*
X116804774Y-76804775D01*
X116894345Y-76744926D01*
X117069930Y-76710000D01*
X174930070Y-76710000D01*
X175105655Y-76744926D01*
G36*
X121633748Y-94455858D02*
X121619605Y-94470000D01*
X121633748Y-94484143D01*
X121454143Y-94663748D01*
X121440000Y-94649605D01*
X121425858Y-94663748D01*
X121246253Y-94484143D01*
X121260395Y-94470000D01*
X121246253Y-94455858D01*
X121425858Y-94276253D01*
X121440000Y-94290395D01*
X121454143Y-94276253D01*
X121633748Y-94455858D01*
X121633748Y-94455858D01*
G37*
X121633748Y-94455858D02*
X121619605Y-94470000D01*
X121633748Y-94484143D01*
X121454143Y-94663748D01*
X121440000Y-94649605D01*
X121425858Y-94663748D01*
X121246253Y-94484143D01*
X121260395Y-94470000D01*
X121246253Y-94455858D01*
X121425858Y-94276253D01*
X121440000Y-94290395D01*
X121454143Y-94276253D01*
X121633748Y-94455858D01*
G36*
X140633748Y-94455858D02*
X140619605Y-94470000D01*
X140633748Y-94484143D01*
X140454143Y-94663748D01*
X140440000Y-94649605D01*
X140425858Y-94663748D01*
X140246253Y-94484143D01*
X140260395Y-94470000D01*
X140246253Y-94455858D01*
X140425858Y-94276253D01*
X140440000Y-94290395D01*
X140454143Y-94276253D01*
X140633748Y-94455858D01*
X140633748Y-94455858D01*
G37*
X140633748Y-94455858D02*
X140619605Y-94470000D01*
X140633748Y-94484143D01*
X140454143Y-94663748D01*
X140440000Y-94649605D01*
X140425858Y-94663748D01*
X140246253Y-94484143D01*
X140260395Y-94470000D01*
X140246253Y-94455858D01*
X140425858Y-94276253D01*
X140440000Y-94290395D01*
X140454143Y-94276253D01*
X140633748Y-94455858D01*
M02*
