G04 #@! TF.FileFunction,Legend,Top*
%FSLAX46Y46*%
G04 Gerber Fmt 4.6, Leading zero omitted, Abs format (unit mm)*
G04 Created by KiCad (PCBNEW 4.0.6) date 08/06/17 17:06:55*
%MOMM*%
%LPD*%
G01*
G04 APERTURE LIST*
%ADD10C,0.100000*%
%ADD11C,0.120000*%
%ADD12C,0.150000*%
%ADD13C,1.400000*%
%ADD14C,3.500000*%
%ADD15R,2.127200X2.127200*%
%ADD16O,2.127200X2.127200*%
%ADD17R,2.432000X2.432000*%
%ADD18O,2.432000X2.432000*%
G04 APERTURE END LIST*
D10*
D11*
X149171524Y-104022571D02*
X148562000Y-104251143D01*
X149171524Y-104479714D01*
X149552476Y-104251143D02*
X150162000Y-104251143D01*
X151152476Y-104555905D02*
X151152476Y-103755905D01*
X151457238Y-103755905D01*
X151533429Y-103794000D01*
X151571524Y-103832095D01*
X151609619Y-103908286D01*
X151609619Y-104022571D01*
X151571524Y-104098762D01*
X151533429Y-104136857D01*
X151457238Y-104174952D01*
X151152476Y-104174952D01*
X151952476Y-104555905D02*
X151952476Y-103755905D01*
X152333428Y-104555905D02*
X152333428Y-103755905D01*
X152790571Y-104555905D01*
X152790571Y-103755905D01*
X154200095Y-104555905D02*
X153742952Y-104555905D01*
X153971523Y-104555905D02*
X153971523Y-103755905D01*
X153895333Y-103870190D01*
X153819142Y-103946381D01*
X153742952Y-103984476D01*
X117135476Y-78241905D02*
X117135476Y-77441905D01*
X117135476Y-77822857D02*
X117592619Y-77822857D01*
X117592619Y-78241905D02*
X117592619Y-77441905D01*
X117897381Y-77708571D02*
X118087857Y-78241905D01*
X118278333Y-77708571D02*
X118087857Y-78241905D01*
X118011666Y-78432381D01*
X117973571Y-78470476D01*
X117897381Y-78508571D01*
X118925952Y-78241905D02*
X118925952Y-77441905D01*
X118925952Y-78203810D02*
X118849762Y-78241905D01*
X118697381Y-78241905D01*
X118621190Y-78203810D01*
X118583095Y-78165714D01*
X118545000Y-78089524D01*
X118545000Y-77860952D01*
X118583095Y-77784762D01*
X118621190Y-77746667D01*
X118697381Y-77708571D01*
X118849762Y-77708571D01*
X118925952Y-77746667D01*
X119306905Y-78241905D02*
X119306905Y-77708571D01*
X119306905Y-77860952D02*
X119345000Y-77784762D01*
X119383096Y-77746667D01*
X119459286Y-77708571D01*
X119535477Y-77708571D01*
X120145000Y-78241905D02*
X120145000Y-77822857D01*
X120106905Y-77746667D01*
X120030715Y-77708571D01*
X119878334Y-77708571D01*
X119802143Y-77746667D01*
X120145000Y-78203810D02*
X120068810Y-78241905D01*
X119878334Y-78241905D01*
X119802143Y-78203810D01*
X119764048Y-78127619D01*
X119764048Y-78051429D01*
X119802143Y-77975238D01*
X119878334Y-77937143D01*
X120068810Y-77937143D01*
X120145000Y-77899048D01*
X120792620Y-77822857D02*
X120906906Y-77860952D01*
X120945001Y-77899048D01*
X120983096Y-77975238D01*
X120983096Y-78089524D01*
X120945001Y-78165714D01*
X120906906Y-78203810D01*
X120830715Y-78241905D01*
X120525953Y-78241905D01*
X120525953Y-77441905D01*
X120792620Y-77441905D01*
X120868810Y-77480000D01*
X120906906Y-77518095D01*
X120945001Y-77594286D01*
X120945001Y-77670476D01*
X120906906Y-77746667D01*
X120868810Y-77784762D01*
X120792620Y-77822857D01*
X120525953Y-77822857D01*
X121668810Y-77708571D02*
X121668810Y-78241905D01*
X121325953Y-77708571D02*
X121325953Y-78127619D01*
X121364048Y-78203810D01*
X121440239Y-78241905D01*
X121554525Y-78241905D01*
X121630715Y-78203810D01*
X121668810Y-78165714D01*
X122011668Y-78203810D02*
X122087858Y-78241905D01*
X122240239Y-78241905D01*
X122316430Y-78203810D01*
X122354525Y-78127619D01*
X122354525Y-78089524D01*
X122316430Y-78013333D01*
X122240239Y-77975238D01*
X122125954Y-77975238D01*
X122049763Y-77937143D01*
X122011668Y-77860952D01*
X122011668Y-77822857D01*
X122049763Y-77746667D01*
X122125954Y-77708571D01*
X122240239Y-77708571D01*
X122316430Y-77746667D01*
X123573573Y-77822857D02*
X123306906Y-77822857D01*
X123306906Y-78241905D02*
X123306906Y-77441905D01*
X123687859Y-77441905D01*
X124106906Y-78241905D02*
X124030715Y-78203810D01*
X123992620Y-78127619D01*
X123992620Y-77441905D01*
X124754525Y-78241905D02*
X124754525Y-77822857D01*
X124716430Y-77746667D01*
X124640240Y-77708571D01*
X124487859Y-77708571D01*
X124411668Y-77746667D01*
X124754525Y-78203810D02*
X124678335Y-78241905D01*
X124487859Y-78241905D01*
X124411668Y-78203810D01*
X124373573Y-78127619D01*
X124373573Y-78051429D01*
X124411668Y-77975238D01*
X124487859Y-77937143D01*
X124678335Y-77937143D01*
X124754525Y-77899048D01*
X125097383Y-78203810D02*
X125173573Y-78241905D01*
X125325954Y-78241905D01*
X125402145Y-78203810D01*
X125440240Y-78127619D01*
X125440240Y-78089524D01*
X125402145Y-78013333D01*
X125325954Y-77975238D01*
X125211669Y-77975238D01*
X125135478Y-77937143D01*
X125097383Y-77860952D01*
X125097383Y-77822857D01*
X125135478Y-77746667D01*
X125211669Y-77708571D01*
X125325954Y-77708571D01*
X125402145Y-77746667D01*
X125783097Y-78241905D02*
X125783097Y-77441905D01*
X126125954Y-78241905D02*
X126125954Y-77822857D01*
X126087859Y-77746667D01*
X126011669Y-77708571D01*
X125897383Y-77708571D01*
X125821192Y-77746667D01*
X125783097Y-77784762D01*
X127078336Y-78203810D02*
X127192622Y-78241905D01*
X127383098Y-78241905D01*
X127459288Y-78203810D01*
X127497384Y-78165714D01*
X127535479Y-78089524D01*
X127535479Y-78013333D01*
X127497384Y-77937143D01*
X127459288Y-77899048D01*
X127383098Y-77860952D01*
X127230717Y-77822857D01*
X127154526Y-77784762D01*
X127116431Y-77746667D01*
X127078336Y-77670476D01*
X127078336Y-77594286D01*
X127116431Y-77518095D01*
X127154526Y-77480000D01*
X127230717Y-77441905D01*
X127421193Y-77441905D01*
X127535479Y-77480000D01*
X127878336Y-78241905D02*
X127878336Y-77441905D01*
X128221193Y-78241905D02*
X128221193Y-77822857D01*
X128183098Y-77746667D01*
X128106908Y-77708571D01*
X127992622Y-77708571D01*
X127916431Y-77746667D01*
X127878336Y-77784762D01*
X128602146Y-78241905D02*
X128602146Y-77708571D01*
X128602146Y-77441905D02*
X128564051Y-77480000D01*
X128602146Y-77518095D01*
X128640241Y-77480000D01*
X128602146Y-77441905D01*
X128602146Y-77518095D01*
X129287860Y-78203810D02*
X129211670Y-78241905D01*
X129059289Y-78241905D01*
X128983098Y-78203810D01*
X128945003Y-78127619D01*
X128945003Y-77822857D01*
X128983098Y-77746667D01*
X129059289Y-77708571D01*
X129211670Y-77708571D01*
X129287860Y-77746667D01*
X129325955Y-77822857D01*
X129325955Y-77899048D01*
X128945003Y-77975238D01*
X129783098Y-78241905D02*
X129706907Y-78203810D01*
X129668812Y-78127619D01*
X129668812Y-77441905D01*
X130430717Y-78241905D02*
X130430717Y-77441905D01*
X130430717Y-78203810D02*
X130354527Y-78241905D01*
X130202146Y-78241905D01*
X130125955Y-78203810D01*
X130087860Y-78165714D01*
X130049765Y-78089524D01*
X130049765Y-77860952D01*
X130087860Y-77784762D01*
X130125955Y-77746667D01*
X130202146Y-77708571D01*
X130354527Y-77708571D01*
X130430717Y-77746667D01*
X131840242Y-78241905D02*
X131383099Y-78241905D01*
X131611670Y-78241905D02*
X131611670Y-77441905D01*
X131535480Y-77556190D01*
X131459289Y-77632381D01*
X131383099Y-77670476D01*
X132183099Y-78165714D02*
X132221194Y-78203810D01*
X132183099Y-78241905D01*
X132145004Y-78203810D01*
X132183099Y-78165714D01*
X132183099Y-78241905D01*
X132983099Y-78241905D02*
X132525956Y-78241905D01*
X132754527Y-78241905D02*
X132754527Y-77441905D01*
X132678337Y-77556190D01*
X132602146Y-77632381D01*
X132525956Y-77670476D01*
X117364048Y-79866667D02*
X117325952Y-79828571D01*
X117249762Y-79714286D01*
X117211667Y-79638095D01*
X117173571Y-79523810D01*
X117135476Y-79333333D01*
X117135476Y-79180952D01*
X117173571Y-78990476D01*
X117211667Y-78876190D01*
X117249762Y-78800000D01*
X117325952Y-78685714D01*
X117364048Y-78647619D01*
X118011666Y-79523810D02*
X117935476Y-79561905D01*
X117783095Y-79561905D01*
X117706904Y-79523810D01*
X117668809Y-79485714D01*
X117630714Y-79409524D01*
X117630714Y-79180952D01*
X117668809Y-79104762D01*
X117706904Y-79066667D01*
X117783095Y-79028571D01*
X117935476Y-79028571D01*
X118011666Y-79066667D01*
X118278333Y-79866667D02*
X118316428Y-79828571D01*
X118392618Y-79714286D01*
X118430714Y-79638095D01*
X118468809Y-79523810D01*
X118506904Y-79333333D01*
X118506904Y-79180952D01*
X118468809Y-78990476D01*
X118430714Y-78876190D01*
X118392618Y-78800000D01*
X118316428Y-78685714D01*
X118278333Y-78647619D01*
X119764047Y-79142857D02*
X119878333Y-79180952D01*
X119916428Y-79219048D01*
X119954523Y-79295238D01*
X119954523Y-79409524D01*
X119916428Y-79485714D01*
X119878333Y-79523810D01*
X119802142Y-79561905D01*
X119497380Y-79561905D01*
X119497380Y-78761905D01*
X119764047Y-78761905D01*
X119840237Y-78800000D01*
X119878333Y-78838095D01*
X119916428Y-78914286D01*
X119916428Y-78990476D01*
X119878333Y-79066667D01*
X119840237Y-79104762D01*
X119764047Y-79142857D01*
X119497380Y-79142857D01*
X120640237Y-79561905D02*
X120640237Y-79142857D01*
X120602142Y-79066667D01*
X120525952Y-79028571D01*
X120373571Y-79028571D01*
X120297380Y-79066667D01*
X120640237Y-79523810D02*
X120564047Y-79561905D01*
X120373571Y-79561905D01*
X120297380Y-79523810D01*
X120259285Y-79447619D01*
X120259285Y-79371429D01*
X120297380Y-79295238D01*
X120373571Y-79257143D01*
X120564047Y-79257143D01*
X120640237Y-79219048D01*
X121135476Y-79561905D02*
X121059285Y-79523810D01*
X121021190Y-79447619D01*
X121021190Y-78761905D01*
X121783095Y-79561905D02*
X121783095Y-78761905D01*
X121783095Y-79523810D02*
X121706905Y-79561905D01*
X121554524Y-79561905D01*
X121478333Y-79523810D01*
X121440238Y-79485714D01*
X121402143Y-79409524D01*
X121402143Y-79180952D01*
X121440238Y-79104762D01*
X121478333Y-79066667D01*
X121554524Y-79028571D01*
X121706905Y-79028571D01*
X121783095Y-79066667D01*
X122506905Y-79561905D02*
X122506905Y-79142857D01*
X122468810Y-79066667D01*
X122392620Y-79028571D01*
X122240239Y-79028571D01*
X122164048Y-79066667D01*
X122506905Y-79523810D02*
X122430715Y-79561905D01*
X122240239Y-79561905D01*
X122164048Y-79523810D01*
X122125953Y-79447619D01*
X122125953Y-79371429D01*
X122164048Y-79295238D01*
X122240239Y-79257143D01*
X122430715Y-79257143D01*
X122506905Y-79219048D01*
X122887858Y-79028571D02*
X122887858Y-79561905D01*
X122887858Y-79104762D02*
X122925953Y-79066667D01*
X123002144Y-79028571D01*
X123116430Y-79028571D01*
X123192620Y-79066667D01*
X123230715Y-79142857D01*
X123230715Y-79561905D01*
X123725954Y-79561905D02*
X123649763Y-79523810D01*
X123611668Y-79485714D01*
X123573573Y-79409524D01*
X123573573Y-79180952D01*
X123611668Y-79104762D01*
X123649763Y-79066667D01*
X123725954Y-79028571D01*
X123840240Y-79028571D01*
X123916430Y-79066667D01*
X123954525Y-79104762D01*
X123992621Y-79180952D01*
X123992621Y-79409524D01*
X123954525Y-79485714D01*
X123916430Y-79523810D01*
X123840240Y-79561905D01*
X123725954Y-79561905D01*
X124297383Y-79523810D02*
X124373573Y-79561905D01*
X124525954Y-79561905D01*
X124602145Y-79523810D01*
X124640240Y-79447619D01*
X124640240Y-79409524D01*
X124602145Y-79333333D01*
X124525954Y-79295238D01*
X124411669Y-79295238D01*
X124335478Y-79257143D01*
X124297383Y-79180952D01*
X124297383Y-79142857D01*
X124335478Y-79066667D01*
X124411669Y-79028571D01*
X124525954Y-79028571D01*
X124602145Y-79066667D01*
D12*
X119440000Y-84470000D02*
X119940000Y-84470000D01*
X119440000Y-104970000D02*
X119940000Y-104970000D01*
X147440000Y-104970000D02*
X119940000Y-104970000D01*
X119440000Y-104970000D02*
X119440000Y-84470000D01*
X119940000Y-84470000D02*
X147440000Y-84470000D01*
X147440000Y-84470000D02*
X147440000Y-104970000D01*
X134725000Y-109655000D02*
X132185000Y-109655000D01*
X137545000Y-109935000D02*
X135995000Y-109935000D01*
X134725000Y-109655000D02*
X134725000Y-107115000D01*
X135995000Y-106835000D02*
X137545000Y-106835000D01*
X137545000Y-106835000D02*
X137545000Y-109935000D01*
X134725000Y-107115000D02*
X132185000Y-107115000D01*
X132185000Y-107115000D02*
X132185000Y-109655000D01*
%LPC*%
D13*
X140440000Y-100470000D03*
X142940000Y-99970000D03*
X145440000Y-99470000D03*
X140440000Y-98970000D03*
X142940000Y-98470000D03*
X145440000Y-97970000D03*
X140440000Y-97470000D03*
X142940000Y-96970000D03*
X145440000Y-96470000D03*
X140440000Y-95970000D03*
X142940000Y-95470000D03*
X145440000Y-94970000D03*
X140440000Y-94470000D03*
X142940000Y-93970000D03*
X145440000Y-93470000D03*
X140440000Y-92970000D03*
X142940000Y-92470000D03*
X145440000Y-91970000D03*
X140440000Y-91470000D03*
X142940000Y-90970000D03*
X145440000Y-90470000D03*
X140440000Y-89970000D03*
X142940000Y-89470000D03*
X145440000Y-88970000D03*
X126440000Y-88970000D03*
X123940000Y-89470000D03*
X121440000Y-89970000D03*
X126440000Y-90470000D03*
X123940000Y-90970000D03*
X121440000Y-91470000D03*
X126440000Y-91970000D03*
X123940000Y-92470000D03*
X121440000Y-92970000D03*
X126440000Y-93470000D03*
X123940000Y-93970000D03*
X121440000Y-94470000D03*
X126440000Y-94970000D03*
X123940000Y-95470000D03*
X121440000Y-95970000D03*
X126440000Y-96470000D03*
X123940000Y-96970000D03*
X121440000Y-97470000D03*
X126440000Y-97970000D03*
X123940000Y-98470000D03*
X121440000Y-98970000D03*
X126440000Y-99470000D03*
X123940000Y-99970000D03*
X121440000Y-100470000D03*
D14*
X124440000Y-102970000D03*
X142940000Y-86470000D03*
D15*
X143361000Y-109528000D03*
D16*
X143361000Y-106988000D03*
X145901000Y-109528000D03*
X145901000Y-106988000D03*
X148441000Y-109528000D03*
X148441000Y-106988000D03*
X150981000Y-109528000D03*
X150981000Y-106988000D03*
X153521000Y-109528000D03*
X153521000Y-106988000D03*
X156061000Y-109528000D03*
X156061000Y-106988000D03*
X158601000Y-109528000D03*
X158601000Y-106988000D03*
X161141000Y-109528000D03*
X161141000Y-106988000D03*
X163681000Y-109528000D03*
X163681000Y-106988000D03*
X166221000Y-109528000D03*
X166221000Y-106988000D03*
D15*
X171809000Y-101908000D03*
D16*
X169269000Y-101908000D03*
X171809000Y-99368000D03*
X169269000Y-99368000D03*
X171809000Y-96828000D03*
X169269000Y-96828000D03*
X171809000Y-94288000D03*
X169269000Y-94288000D03*
X171809000Y-91748000D03*
X169269000Y-91748000D03*
X171809000Y-89208000D03*
X169269000Y-89208000D03*
X171809000Y-86668000D03*
X169269000Y-86668000D03*
D15*
X153521000Y-84826500D03*
D16*
X156061000Y-84826500D03*
X158601000Y-84826500D03*
X161141000Y-84826500D03*
X163681000Y-84826500D03*
X166221000Y-84826500D03*
D15*
X143361000Y-81588000D03*
D16*
X143361000Y-79048000D03*
X145901000Y-81588000D03*
X145901000Y-79048000D03*
X148441000Y-81588000D03*
X148441000Y-79048000D03*
X150981000Y-81588000D03*
X150981000Y-79048000D03*
X153521000Y-81588000D03*
X153521000Y-79048000D03*
X156061000Y-81588000D03*
X156061000Y-79048000D03*
X158601000Y-81588000D03*
X158601000Y-79048000D03*
X161141000Y-81588000D03*
X161141000Y-79048000D03*
X163681000Y-81588000D03*
X163681000Y-79048000D03*
X166221000Y-81588000D03*
X166221000Y-79048000D03*
D17*
X135995000Y-108385000D03*
D18*
X133455000Y-108385000D03*
M02*
