M48
;DRILL file {KiCad 4.0.6} date 08/06/17 17:07:02
;FORMAT={-:-/ absolute / inch / decimal}
FMAT,2
INCH,TZ
T1C0.013
T2C0.028
T3C0.040
T4C0.118
%
G90
G05
M72
T1
X5.0709Y-3.8819
X5.1693Y-3.8819
X5.4843Y-3.7205
X5.5748Y-3.7205
X5.9094Y-3.6969
X5.9094Y-3.8583
T2
X4.7811Y-3.5421
X4.7811Y-3.6012
X4.7811Y-3.6602
X4.7811Y-3.7193
X4.7811Y-3.7783
X4.7811Y-3.8374
X4.7811Y-3.8965
X4.7811Y-3.9555
X4.8795Y-3.5224
X4.8795Y-3.5815
X4.8795Y-3.6406
X4.8795Y-3.6996
X4.8795Y-3.7587
X4.8795Y-3.8177
X4.8795Y-3.8768
X4.8795Y-3.9358
X4.978Y-3.5028
X4.978Y-3.5618
X4.978Y-3.6209
X4.978Y-3.6799
X4.978Y-3.739
X4.978Y-3.798
X4.978Y-3.8571
X4.978Y-3.9161
X5.5291Y-3.5421
X5.5291Y-3.6012
X5.5291Y-3.6602
X5.5291Y-3.7193
X5.5291Y-3.7783
X5.5291Y-3.8374
X5.5291Y-3.8965
X5.5291Y-3.9555
X5.6276Y-3.5224
X5.6276Y-3.5815
X5.6276Y-3.6406
X5.6276Y-3.6996
X5.6276Y-3.7587
X5.6276Y-3.8177
X5.6276Y-3.8768
X5.6276Y-3.9358
X5.726Y-3.5028
X5.726Y-3.5618
X5.726Y-3.6209
X5.726Y-3.6799
X5.726Y-3.739
X5.726Y-3.798
X5.726Y-3.8571
X5.726Y-3.9161
T3
X5.2541Y-4.2671
X5.3541Y-4.2671
X5.6441Y-3.1121
X5.6441Y-3.2121
X5.6441Y-4.2121
X5.6441Y-4.3121
X5.7441Y-3.1121
X5.7441Y-3.2121
X5.7441Y-4.2121
X5.7441Y-4.3121
X5.8441Y-3.1121
X5.8441Y-3.2121
X5.8441Y-4.2121
X5.8441Y-4.3121
X5.9441Y-3.1121
X5.9441Y-3.2121
X5.9441Y-4.2121
X5.9441Y-4.3121
X6.0441Y-3.1121
X6.0441Y-3.2121
X6.0441Y-3.3396
X6.0441Y-4.2121
X6.0441Y-4.3121
X6.1441Y-3.1121
X6.1441Y-3.2121
X6.1441Y-3.3396
X6.1441Y-4.2121
X6.1441Y-4.3121
X6.2441Y-3.1121
X6.2441Y-3.2121
X6.2441Y-3.3396
X6.2441Y-4.2121
X6.2441Y-4.3121
X6.3441Y-3.1121
X6.3441Y-3.2121
X6.3441Y-3.3396
X6.3441Y-4.2121
X6.3441Y-4.3121
X6.4441Y-3.1121
X6.4441Y-3.2121
X6.4441Y-3.3396
X6.4441Y-4.2121
X6.4441Y-4.3121
X6.5441Y-3.1121
X6.5441Y-3.2121
X6.5441Y-3.3396
X6.5441Y-4.2121
X6.5441Y-4.3121
X6.6641Y-3.4121
X6.6641Y-3.5121
X6.6641Y-3.6121
X6.6641Y-3.7121
X6.6641Y-3.8121
X6.6641Y-3.9121
X6.6641Y-4.0121
X6.7641Y-3.4121
X6.7641Y-3.5121
X6.7641Y-3.6121
X6.7641Y-3.7121
X6.7641Y-3.8121
X6.7641Y-3.9121
X6.7641Y-4.0121
T4
X4.8992Y-4.0539
X5.6276Y-3.4043
T0
M30
