G04 #@! TF.FileFunction,Legend,Bot*
%FSLAX46Y46*%
G04 Gerber Fmt 4.6, Leading zero omitted, Abs format (unit mm)*
G04 Created by KiCad (PCBNEW 4.0.6) date 08/06/17 17:06:55*
%MOMM*%
%LPD*%
G01*
G04 APERTURE LIST*
%ADD10C,0.100000*%
%ADD11C,0.150000*%
%ADD12C,1.400000*%
%ADD13C,3.500000*%
%ADD14R,2.127200X2.127200*%
%ADD15O,2.127200X2.127200*%
%ADD16R,2.432000X2.432000*%
%ADD17O,2.432000X2.432000*%
%ADD18R,1.650000X1.900000*%
%ADD19R,1.900000X1.650000*%
G04 APERTURE END LIST*
D10*
X144631000Y-108258000D02*
X142091000Y-108258000D01*
X144631000Y-110798000D02*
X144631000Y-105718000D01*
X142091000Y-108258000D02*
X142091000Y-110798000D01*
X142091000Y-110798000D02*
X167491000Y-110798000D01*
X167491000Y-110798000D02*
X167491000Y-105718000D01*
X167491000Y-105718000D02*
X142091000Y-105718000D01*
X142091000Y-105718000D02*
X142091000Y-108258000D01*
X170539000Y-100638000D02*
X167999000Y-100638000D01*
X170539000Y-103178000D02*
X170539000Y-100638000D01*
X170539000Y-100638000D02*
X173079000Y-100638000D01*
X167999000Y-85398000D02*
X173079000Y-85398000D01*
X173079000Y-85398000D02*
X173079000Y-103178000D01*
X173079000Y-103178000D02*
X167999000Y-103178000D01*
X167999000Y-103178000D02*
X167999000Y-85398000D01*
X154791000Y-83556500D02*
X154791000Y-86096500D01*
X152251000Y-83556500D02*
X152251000Y-86096500D01*
X152251000Y-86096500D02*
X167491000Y-86096500D01*
X167491000Y-86096500D02*
X167491000Y-83556500D01*
X167491000Y-83556500D02*
X152251000Y-83556500D01*
X144631000Y-80318000D02*
X142091000Y-80318000D01*
X144631000Y-82858000D02*
X144631000Y-77778000D01*
X142091000Y-80318000D02*
X142091000Y-82858000D01*
X142091000Y-82858000D02*
X167491000Y-82858000D01*
X167491000Y-82858000D02*
X167491000Y-77778000D01*
X167491000Y-77778000D02*
X142091000Y-77778000D01*
X142091000Y-77778000D02*
X142091000Y-80318000D01*
D11*
X127919884Y-96687460D02*
X127919884Y-95687460D01*
X129619884Y-95687460D02*
X129619884Y-96687460D01*
X130459884Y-96687460D02*
X130459884Y-95687460D01*
X132159884Y-95687460D02*
X132159884Y-96687460D01*
X149342000Y-95900000D02*
X148342000Y-95900000D01*
X148342000Y-94200000D02*
X149342000Y-94200000D01*
X149342000Y-97678000D02*
X148342000Y-97678000D01*
X148342000Y-95978000D02*
X149342000Y-95978000D01*
X129157143Y-99733334D02*
X129204762Y-99685715D01*
X129252381Y-99542858D01*
X129252381Y-99447620D01*
X129204762Y-99304762D01*
X129109524Y-99209524D01*
X129014286Y-99161905D01*
X128823810Y-99114286D01*
X128680952Y-99114286D01*
X128490476Y-99161905D01*
X128395238Y-99209524D01*
X128300000Y-99304762D01*
X128252381Y-99447620D01*
X128252381Y-99542858D01*
X128300000Y-99685715D01*
X128347619Y-99733334D01*
X129252381Y-100685715D02*
X129252381Y-100114286D01*
X129252381Y-100400000D02*
X128252381Y-100400000D01*
X128395238Y-100304762D01*
X128490476Y-100209524D01*
X128538095Y-100114286D01*
X131657143Y-99733334D02*
X131704762Y-99685715D01*
X131752381Y-99542858D01*
X131752381Y-99447620D01*
X131704762Y-99304762D01*
X131609524Y-99209524D01*
X131514286Y-99161905D01*
X131323810Y-99114286D01*
X131180952Y-99114286D01*
X130990476Y-99161905D01*
X130895238Y-99209524D01*
X130800000Y-99304762D01*
X130752381Y-99447620D01*
X130752381Y-99542858D01*
X130800000Y-99685715D01*
X130847619Y-99733334D01*
X130847619Y-100114286D02*
X130800000Y-100161905D01*
X130752381Y-100257143D01*
X130752381Y-100495239D01*
X130800000Y-100590477D01*
X130847619Y-100638096D01*
X130942857Y-100685715D01*
X131038095Y-100685715D01*
X131180952Y-100638096D01*
X131752381Y-100066667D01*
X131752381Y-100685715D01*
X152290666Y-95407143D02*
X152338285Y-95454762D01*
X152481142Y-95502381D01*
X152576380Y-95502381D01*
X152719238Y-95454762D01*
X152814476Y-95359524D01*
X152862095Y-95264286D01*
X152909714Y-95073810D01*
X152909714Y-94930952D01*
X152862095Y-94740476D01*
X152814476Y-94645238D01*
X152719238Y-94550000D01*
X152576380Y-94502381D01*
X152481142Y-94502381D01*
X152338285Y-94550000D01*
X152290666Y-94597619D01*
X151957333Y-94502381D02*
X151338285Y-94502381D01*
X151671619Y-94883333D01*
X151528761Y-94883333D01*
X151433523Y-94930952D01*
X151385904Y-94978571D01*
X151338285Y-95073810D01*
X151338285Y-95311905D01*
X151385904Y-95407143D01*
X151433523Y-95454762D01*
X151528761Y-95502381D01*
X151814476Y-95502381D01*
X151909714Y-95454762D01*
X151957333Y-95407143D01*
X152290666Y-97185143D02*
X152338285Y-97232762D01*
X152481142Y-97280381D01*
X152576380Y-97280381D01*
X152719238Y-97232762D01*
X152814476Y-97137524D01*
X152862095Y-97042286D01*
X152909714Y-96851810D01*
X152909714Y-96708952D01*
X152862095Y-96518476D01*
X152814476Y-96423238D01*
X152719238Y-96328000D01*
X152576380Y-96280381D01*
X152481142Y-96280381D01*
X152338285Y-96328000D01*
X152290666Y-96375619D01*
X151433523Y-96613714D02*
X151433523Y-97280381D01*
X151671619Y-96232762D02*
X151909714Y-96947048D01*
X151290666Y-96947048D01*
%LPC*%
D12*
X140440000Y-100470000D03*
X142940000Y-99970000D03*
X145440000Y-99470000D03*
X140440000Y-98970000D03*
X142940000Y-98470000D03*
X145440000Y-97970000D03*
X140440000Y-97470000D03*
X142940000Y-96970000D03*
X145440000Y-96470000D03*
X140440000Y-95970000D03*
X142940000Y-95470000D03*
X145440000Y-94970000D03*
X140440000Y-94470000D03*
X142940000Y-93970000D03*
X145440000Y-93470000D03*
X140440000Y-92970000D03*
X142940000Y-92470000D03*
X145440000Y-91970000D03*
X140440000Y-91470000D03*
X142940000Y-90970000D03*
X145440000Y-90470000D03*
X140440000Y-89970000D03*
X142940000Y-89470000D03*
X145440000Y-88970000D03*
X126440000Y-88970000D03*
X123940000Y-89470000D03*
X121440000Y-89970000D03*
X126440000Y-90470000D03*
X123940000Y-90970000D03*
X121440000Y-91470000D03*
X126440000Y-91970000D03*
X123940000Y-92470000D03*
X121440000Y-92970000D03*
X126440000Y-93470000D03*
X123940000Y-93970000D03*
X121440000Y-94470000D03*
X126440000Y-94970000D03*
X123940000Y-95470000D03*
X121440000Y-95970000D03*
X126440000Y-96470000D03*
X123940000Y-96970000D03*
X121440000Y-97470000D03*
X126440000Y-97970000D03*
X123940000Y-98470000D03*
X121440000Y-98970000D03*
X126440000Y-99470000D03*
X123940000Y-99970000D03*
X121440000Y-100470000D03*
D13*
X124440000Y-102970000D03*
X142940000Y-86470000D03*
D14*
X143361000Y-109528000D03*
D15*
X143361000Y-106988000D03*
X145901000Y-109528000D03*
X145901000Y-106988000D03*
X148441000Y-109528000D03*
X148441000Y-106988000D03*
X150981000Y-109528000D03*
X150981000Y-106988000D03*
X153521000Y-109528000D03*
X153521000Y-106988000D03*
X156061000Y-109528000D03*
X156061000Y-106988000D03*
X158601000Y-109528000D03*
X158601000Y-106988000D03*
X161141000Y-109528000D03*
X161141000Y-106988000D03*
X163681000Y-109528000D03*
X163681000Y-106988000D03*
X166221000Y-109528000D03*
X166221000Y-106988000D03*
D14*
X171809000Y-101908000D03*
D15*
X169269000Y-101908000D03*
X171809000Y-99368000D03*
X169269000Y-99368000D03*
X171809000Y-96828000D03*
X169269000Y-96828000D03*
X171809000Y-94288000D03*
X169269000Y-94288000D03*
X171809000Y-91748000D03*
X169269000Y-91748000D03*
X171809000Y-89208000D03*
X169269000Y-89208000D03*
X171809000Y-86668000D03*
X169269000Y-86668000D03*
D14*
X153521000Y-84826500D03*
D15*
X156061000Y-84826500D03*
X158601000Y-84826500D03*
X161141000Y-84826500D03*
X163681000Y-84826500D03*
X166221000Y-84826500D03*
D14*
X143361000Y-81588000D03*
D15*
X143361000Y-79048000D03*
X145901000Y-81588000D03*
X145901000Y-79048000D03*
X148441000Y-81588000D03*
X148441000Y-79048000D03*
X150981000Y-81588000D03*
X150981000Y-79048000D03*
X153521000Y-81588000D03*
X153521000Y-79048000D03*
X156061000Y-81588000D03*
X156061000Y-79048000D03*
X158601000Y-81588000D03*
X158601000Y-79048000D03*
X161141000Y-81588000D03*
X161141000Y-79048000D03*
X163681000Y-81588000D03*
X163681000Y-79048000D03*
X166221000Y-81588000D03*
X166221000Y-79048000D03*
D16*
X135995000Y-108385000D03*
D17*
X133455000Y-108385000D03*
D18*
X128769884Y-94937460D03*
X128769884Y-97437460D03*
X131309884Y-94937460D03*
X131309884Y-97437460D03*
D19*
X147592000Y-95050000D03*
X150092000Y-95050000D03*
X147592000Y-96828000D03*
X150092000Y-96828000D03*
M02*
